<svg xmlns="http://www.w3.org/2000/svg" viewBox="0 0 145.91 110.58"><defs><style>.cls-1{fill:#ed1c24;}</style></defs><title>jar-logo</title><g id="Layer_2" data-name="Layer 2"><g id="Layer_1-2" data-name="Layer 1"><path class="cls-1" d="M102.82,57.58V43.33c0-20.53-8.47-29.07-29-29.07a94.61,94.61,0,0,0-26.31,4.49V41.09c3.9-3,11.24-8.12,21.82-8.12C76.62,33,81,34.53,81,42a58,58,0,0,0-11,.58h-.06l-.41.07c-.41.06-.81.13-1.22.21-.83.15-1.67.32-2.49.51l-1,.23c-1.07.28-2.13.59-3.17.94l-1,.35c-.84.31-1.67.64-2.49,1l-.78.34c-1,.47-2,1-2.91,1.54l-.73.46a27.2,27.2,0,0,0-2.24,1.57l-.43.29h0a23.28,23.28,0,0,0-8.92,19c0,14.14,8.94,23.73,21.81,23.73,7.71,0,13.22-2.16,17.83-6.8v5.88h24.11c-1.84-2-3.09-5.73-3.09-10.6ZM81,62.93A11.17,11.17,0,0,1,70.14,74.22c-3.35,0-6.17-1.93-6.17-6.1C64,62,69.7,57.2,81,57.42Z"/><path class="cls-1" d="M13.61,11.31v53.5c0,12.37-1.37,22-9.24,22A14.25,14.25,0,0,1,0,86.06v24.52c27.46,0,38.57-14.06,38.57-40V0h-28C12.5,2.2,13.61,5.82,13.61,11.31Z"/><path class="cls-1" d="M143.91,14.26c-4.51,0-9,2.91-12.41,9V15.39h-24c2,2.2,3.09,5.77,3.09,11.3V81.32c0,5.08-1.2,8.5-3.08,10.6h28c-1.89-2.1-3.09-5.63-3.09-10.6V48.38c0-1,0-1.83.11-2.66h0c.48-5.76,2.69-8.65,7.1-8.65,2.32,0,3.74.53,6.29,1.6V14.45A10.34,10.34,0,0,0,143.91,14.26Z"/></g></g></svg>