<svg width="1440" height="311" viewBox="0 0 1440 311" fill="none" xmlns="http://www.w3.org/2000/svg">
<g clip-path="url(#clip0)">
<path d="M1381.89 220.085H1381.84C1380.45 220.085 1379.35 221.218 1379.35 222.603C1379.35 223.989 1380.5 225.122 1381.89 225.122C1383.27 225.122 1384.41 223.989 1384.41 222.603C1384.41 221.218 1383.3 220.085 1381.89 220.085Z" fill="white"/>
<path d="M1392.01 220.085H1391.96C1390.57 220.085 1389.47 221.218 1389.47 222.603C1389.47 223.989 1390.62 225.122 1392.01 225.122C1393.39 225.122 1394.53 223.989 1394.53 222.603C1394.53 221.218 1393.42 220.085 1392.01 220.085Z" fill="white"/>
<path d="M1371.77 220.085H1371.72C1370.33 220.085 1369.2 221.218 1369.2 222.603C1369.2 223.989 1370.33 225.122 1371.72 225.122H1371.77C1373.15 225.122 1374.29 223.989 1374.29 222.603C1374.29 221.218 1373.18 220.085 1371.77 220.085Z" fill="white"/>
<path d="M1361.65 220.085H1361.6C1360.21 220.085 1359.11 221.218 1359.11 222.603C1359.11 223.989 1360.27 225.122 1361.65 225.122C1363.03 225.122 1364.17 223.989 1364.17 222.603C1364.17 221.218 1363.06 220.085 1361.65 220.085Z" fill="white"/>
<path d="M1402.13 220.085H1402.08C1400.69 220.085 1399.56 221.218 1399.56 222.603C1399.56 223.989 1400.69 225.122 1402.08 225.122H1402.13C1403.51 225.122 1404.64 223.989 1404.64 222.603C1404.64 221.218 1403.54 220.085 1402.13 220.085Z" fill="white"/>
<path d="M1422.37 220.085H1422.32C1420.93 220.085 1419.8 221.218 1419.8 222.603C1419.8 223.989 1420.93 225.122 1422.32 225.122H1422.37C1423.75 225.122 1424.88 223.989 1424.88 222.603C1424.88 221.218 1423.78 220.085 1422.37 220.085Z" fill="white"/>
<path d="M1432.49 220.085H1432.44C1431.05 220.085 1429.94 221.218 1429.94 222.603C1429.94 223.989 1431.1 225.122 1432.49 225.122C1433.87 225.122 1435 223.989 1435 222.603C1435 221.218 1433.9 220.085 1432.49 220.085Z" fill="white"/>
<path d="M1412.25 220.085H1412.2C1410.81 220.085 1409.7 221.218 1409.7 222.603C1409.7 223.989 1410.86 225.122 1412.25 225.122C1413.63 225.122 1414.76 223.989 1414.76 222.603C1414.76 221.218 1413.66 220.085 1412.25 220.085Z" fill="white"/>
<path d="M1300.98 188.907C1302.37 188.856 1303.48 187.698 1303.42 186.313V186.263C1303.37 184.877 1302.22 183.82 1300.83 183.845C1299.45 183.895 1298.34 185.079 1298.39 186.464C1298.44 187.824 1299.55 188.907 1300.91 188.907C1300.93 188.907 1300.96 188.907 1300.98 188.907Z" fill="white"/>
<path d="M1304.96 195.606V195.581C1304.56 194.246 1303.15 193.49 1301.81 193.893C1300.48 194.296 1299.72 195.707 1300.13 197.041L1300.15 197.117C1300.48 198.2 1301.49 198.88 1302.54 198.88C1302.8 198.88 1303.05 198.855 1303.3 198.754C1304.63 198.326 1305.39 196.915 1304.96 195.606Z" fill="white"/>
<path d="M1351.53 220.085H1351.48C1350.1 220.085 1348.96 221.218 1348.96 222.603C1348.96 223.989 1350.1 225.122 1351.48 225.122H1351.53C1352.91 225.122 1354.05 223.989 1354.05 222.603C1354.05 221.218 1352.94 220.085 1351.53 220.085Z" fill="white"/>
<path d="M1300.88 178.783C1302.27 178.783 1303.4 177.65 1303.4 176.264V176.214C1303.4 174.829 1302.27 173.721 1300.88 173.721C1299.5 173.721 1298.36 174.879 1298.36 176.264C1298.36 177.675 1299.5 178.783 1300.88 178.783Z" fill="white"/>
<path d="M1308.91 204.068C1308.16 202.909 1306.6 202.582 1305.44 203.363C1304.28 204.118 1303.95 205.705 1304.71 206.863C1305.19 207.619 1305.99 208.022 1306.82 208.022C1307.3 208.022 1307.75 207.896 1308.18 207.619C1309.34 206.863 1309.69 205.302 1308.94 204.143L1308.91 204.068Z" fill="white"/>
<path d="M1315.08 211.245C1314.05 210.313 1312.46 210.389 1311.53 211.396C1310.6 212.429 1310.65 214.016 1311.68 214.947C1311.71 214.973 1311.78 215.023 1311.81 215.048C1312.29 215.451 1312.86 215.653 1313.44 215.653C1314.15 215.653 1314.88 215.35 1315.36 214.771C1316.21 213.713 1316.11 212.152 1315.08 211.245ZM1313.37 213.109L1313.67 212.782L1313.37 213.109Z" fill="white"/>
<path d="M1341.41 220.085H1341.36C1339.98 220.085 1338.87 221.218 1338.87 222.603C1338.87 223.989 1340.03 225.122 1341.41 225.122C1342.79 225.122 1343.93 223.989 1343.93 222.603C1343.93 221.218 1342.82 220.085 1341.41 220.085Z" fill="white"/>
<path d="M1331.87 219.506L1331.74 219.481C1330.38 219.229 1329.05 220.16 1328.8 221.52C1328.55 222.88 1329.45 224.19 1330.81 224.442C1330.99 224.467 1331.17 224.492 1331.34 224.492C1332.5 224.492 1333.56 223.686 1333.81 222.503C1334.09 221.143 1333.23 219.808 1331.87 219.506Z" fill="white"/>
<path d="M1322.88 216.509L1321.75 218.75L1322.88 216.509C1321.62 215.879 1320.11 216.383 1319.49 217.617C1318.86 218.851 1319.36 220.362 1320.62 220.992L1320.69 221.017C1321.05 221.193 1321.42 221.269 1321.78 221.269C1322.71 221.269 1323.61 220.74 1324.04 219.858C1324.65 218.649 1324.12 217.138 1322.88 216.509Z" fill="white"/>
<path d="M886.991 191.173L886.89 191.123C885.631 190.519 884.121 191.022 883.517 192.256C882.913 193.516 883.416 195.001 884.65 195.631C885.027 195.833 885.43 195.908 885.808 195.908C886.714 195.908 887.595 195.43 888.048 194.548C888.702 193.339 888.224 191.828 886.991 191.173Z" fill="white"/>
<path d="M895.927 194.649L895.172 197.067L895.927 194.649C894.593 194.246 893.183 194.976 892.781 196.311C892.378 197.646 893.108 199.056 894.442 199.459C894.467 199.459 894.543 199.484 894.568 199.484C894.794 199.535 895.021 199.585 895.248 199.585C896.355 199.585 897.362 198.855 897.689 197.747C898.042 196.412 897.261 195.027 895.927 194.649Z" fill="white"/>
<path d="M879.112 185.96C879.087 185.935 879.061 185.91 879.036 185.885L877.4 187.799L879.036 185.885C877.979 184.978 876.393 185.104 875.487 186.137C874.58 187.194 874.681 188.781 875.738 189.688C876.217 190.116 876.821 190.342 877.425 190.342C878.105 190.342 878.81 190.065 879.288 189.511C880.219 188.479 880.144 186.892 879.112 185.96Z" fill="white"/>
<path d="M869.168 170.321C869.168 170.321 869.143 170.271 869.143 170.245C868.766 168.911 867.381 168.155 866.047 168.533C864.713 168.911 863.932 170.321 864.31 171.656C864.612 172.764 865.644 173.494 866.726 173.494C866.953 173.494 867.18 173.469 867.406 173.393C868.766 173.041 869.546 171.656 869.168 170.321Z" fill="white"/>
<path d="M870.804 180.168L872.944 178.833C872.214 177.65 870.653 177.297 869.47 178.027C868.287 178.758 867.935 180.319 868.665 181.503L868.715 181.578C869.193 182.334 869.999 182.737 870.83 182.737C871.283 182.737 871.761 182.611 872.189 182.334C873.372 181.578 873.699 180.042 872.969 178.858L870.804 180.168Z" fill="white"/>
<path d="M925.253 197.847H925.203C923.818 197.847 922.686 198.981 922.686 200.366C922.686 201.751 923.818 202.884 925.203 202.884H925.253C926.637 202.884 927.77 201.751 927.77 200.366C927.77 198.981 926.663 197.847 925.253 197.847Z" fill="white"/>
<path d="M865.267 163.521C866.651 163.496 867.759 162.363 867.759 160.978V160.902C867.708 159.517 866.576 158.459 865.191 158.484C863.807 158.51 862.699 159.693 862.724 161.053C862.749 162.438 863.857 163.546 865.241 163.546C865.241 163.521 865.267 163.521 865.267 163.521Z" fill="white"/>
<path d="M935.373 197.847H935.322C933.938 197.847 932.83 198.981 932.83 200.366C932.83 201.751 933.988 202.884 935.373 202.884C936.757 202.884 937.89 201.751 937.89 200.366C937.89 198.981 936.782 197.847 935.373 197.847Z" fill="white"/>
<path d="M905.467 196.739L905.039 199.232L905.417 196.739C904.033 196.538 902.749 197.495 902.547 198.855C902.346 200.24 903.303 201.524 904.662 201.726H904.712C904.838 201.751 904.964 201.751 905.09 201.751C906.323 201.751 907.406 200.844 907.582 199.61C907.783 198.2 906.827 196.941 905.467 196.739Z" fill="white"/>
<path d="M915.26 197.696L915.109 200.215L915.26 197.696C913.875 197.621 912.667 198.678 912.591 200.063C912.516 201.449 913.573 202.632 914.958 202.733C914.983 202.733 915.058 202.733 915.084 202.733C915.109 202.733 915.134 202.733 915.159 202.733C916.519 202.733 917.651 201.65 917.702 200.29C917.727 198.905 916.644 197.721 915.26 197.696Z" fill="white"/>
<path d="M862.12 89.9077L862.069 89.8321C861.188 88.7744 859.628 88.6233 858.571 89.5047C857.488 90.3862 857.337 91.9728 858.193 93.0557C858.696 93.6853 859.426 94.0127 860.156 94.0127C860.71 94.0127 861.264 93.8364 861.717 93.4586C862.8 92.5772 862.976 90.9906 862.12 89.9077Z" fill="white"/>
<path d="M864.814 102.903C865.065 102.903 865.317 102.878 865.543 102.802C866.877 102.399 867.607 100.989 867.23 99.6791L864.814 100.359L867.23 99.654C866.852 98.3192 865.443 97.5385 864.109 97.9414C862.775 98.3192 861.994 99.7295 862.397 101.064C862.397 101.089 862.422 101.14 862.422 101.165C862.75 102.198 863.731 102.903 864.814 102.903Z" fill="white"/>
<path d="M865.845 148.335C864.461 148.335 863.328 149.468 863.328 150.853V150.904C863.328 152.289 864.461 153.422 865.845 153.422C867.23 153.422 868.363 152.289 868.363 150.904V150.853C868.363 149.468 867.23 148.335 865.845 148.335Z" fill="white"/>
<path d="M863.328 110.408C863.328 111.793 864.461 112.926 865.845 112.926C867.23 112.926 868.363 111.793 868.363 110.408V110.357C868.363 108.972 867.23 107.864 865.845 107.864C864.461 107.864 863.328 109.022 863.328 110.408Z" fill="white"/>
<path d="M868.363 130.605C868.363 129.22 867.23 128.087 865.845 128.087C864.461 128.087 863.328 129.22 863.328 130.605V130.656C863.328 132.041 864.461 133.174 865.845 133.174C867.23 133.174 868.363 132.041 868.363 130.656V130.605Z" fill="white"/>
<path d="M832.718 79.431H832.668C831.283 79.431 830.15 80.5643 830.15 81.9495C830.15 83.3346 831.283 84.4679 832.668 84.4679H832.718C834.103 84.4679 835.235 83.3346 835.235 81.9495C835.235 80.5391 834.103 79.431 832.718 79.431Z" fill="white"/>
<path d="M868.363 140.729C868.363 139.344 867.23 138.236 865.845 138.236C864.461 138.236 863.328 139.395 863.328 140.78C863.328 142.165 864.461 143.298 865.845 143.298C867.23 143.298 868.363 142.165 868.363 140.78V140.729Z" fill="white"/>
<path d="M868.363 120.481C868.363 119.096 867.23 117.988 865.845 117.988C864.461 117.988 863.328 119.147 863.328 120.532C863.328 121.917 864.461 123.05 865.845 123.05C867.23 123.05 868.363 121.917 868.363 120.532V120.481Z" fill="white"/>
<path d="M945.492 197.847H945.442C944.057 197.847 942.924 198.981 942.924 200.366C942.924 201.751 944.057 202.884 945.442 202.884H945.492C946.877 202.884 948.01 201.751 948.01 200.366C948.01 198.981 946.902 197.847 945.492 197.847Z" fill="white"/>
<path d="M853.611 82.8057L852.378 84.9967L853.611 82.8057C852.378 82.1257 850.842 82.5791 850.188 83.7879C849.508 84.9967 849.961 86.533 851.17 87.2129L851.27 87.2633C851.648 87.4648 852.051 87.5403 852.428 87.5403C853.335 87.5403 854.19 87.0618 854.643 86.2056C855.298 84.9967 854.82 83.4857 853.611 82.8057Z" fill="white"/>
<path d="M843.039 79.5569L842.762 82.0502L843.039 79.5569C841.629 79.4058 840.396 80.4132 840.27 81.7983C840.119 83.1835 841.126 84.4175 842.51 84.5686H842.586C842.661 84.5686 842.737 84.5686 842.812 84.5686C844.096 84.5686 845.179 83.5864 845.305 82.2768C845.456 80.9169 844.424 79.6829 843.039 79.5569Z" fill="white"/>
<path d="M1143.45 217.214L1141.24 218.423L1143.45 217.214C1142.77 215.98 1141.24 215.552 1140.03 216.207C1138.82 216.887 1138.37 218.398 1139.05 219.632C1139.05 219.657 1139.1 219.707 1139.1 219.732C1139.57 220.538 1140.41 220.992 1141.29 220.992C1141.71 220.992 1142.14 220.891 1142.55 220.639C1143.73 219.934 1144.13 218.398 1143.45 217.214Z" fill="white"/>
<path d="M1107.4 197.847H1107.35C1105.97 197.847 1104.84 198.981 1104.84 200.366C1104.84 201.751 1105.97 202.884 1107.35 202.884H1107.4C1108.79 202.884 1109.92 201.751 1109.92 200.366C1109.92 198.981 1108.81 197.847 1107.4 197.847Z" fill="white"/>
<path d="M1097.28 197.847H1097.23C1095.85 197.847 1094.72 198.981 1094.72 200.366C1094.72 201.751 1095.85 202.884 1097.23 202.884H1097.28C1098.67 202.884 1099.8 201.751 1099.8 200.366C1099.8 198.981 1098.69 197.847 1097.28 197.847Z" fill="white"/>
<path d="M1117.95 198.603L1117.42 201.071L1117.95 198.603C1116.59 198.326 1115.26 199.182 1114.96 200.542C1114.68 201.902 1115.53 203.237 1116.89 203.514L1117.02 203.539C1117.17 203.564 1117.32 203.589 1117.47 203.589C1118.68 203.589 1119.74 202.733 1119.97 201.524C1120.22 200.164 1119.34 198.855 1117.95 198.603Z" fill="white"/>
<path d="M1087.16 197.847H1087.11C1085.73 197.847 1084.62 198.981 1084.62 200.366C1084.62 201.751 1085.78 202.884 1087.16 202.884C1088.55 202.884 1089.68 201.751 1089.68 200.366C1089.68 198.981 1088.57 197.847 1087.16 197.847Z" fill="white"/>
<path d="M1077.05 197.847H1077C1075.61 197.847 1074.48 198.981 1074.48 200.366C1074.48 201.751 1075.61 202.884 1077 202.884H1077.05C1078.43 202.884 1079.56 201.751 1079.56 200.366C1079.56 198.981 1078.46 197.847 1077.05 197.847Z" fill="white"/>
<path d="M1145.79 235.372C1144.41 235.372 1143.28 236.53 1143.28 237.915C1143.28 239.301 1144.41 240.434 1145.79 240.434C1147.18 240.434 1148.31 239.301 1148.31 237.915V237.865C1148.31 236.48 1147.18 235.372 1145.79 235.372Z" fill="white"/>
<path d="M1145.47 230.31C1146.82 229.982 1147.66 228.648 1147.33 227.288V227.262C1147.03 225.902 1145.67 225.046 1144.31 225.374C1142.95 225.676 1142.09 227.036 1142.42 228.396L1142.44 228.471C1142.72 229.63 1143.75 230.41 1144.89 230.41C1145.09 230.385 1145.26 230.36 1145.47 230.31Z" fill="white"/>
<path d="M1066.93 197.847H1066.88C1065.49 197.847 1064.36 198.981 1064.36 200.366C1064.36 201.751 1065.49 202.884 1066.88 202.884H1066.93C1068.31 202.884 1069.44 201.751 1069.44 200.366C1069.44 198.981 1068.34 197.847 1066.93 197.847Z" fill="white"/>
<path d="M1135.07 210.414L1136.83 208.626C1135.85 207.644 1134.24 207.669 1133.28 208.651C1132.3 209.633 1132.33 211.245 1133.31 212.202C1133.33 212.202 1133.36 212.253 1133.38 212.278C1133.86 212.731 1134.49 212.958 1135.09 212.958C1135.75 212.958 1136.43 212.706 1136.93 212.177C1137.89 211.17 1137.84 209.583 1136.86 208.626L1135.07 210.414Z" fill="white"/>
<path d="M1128.15 202.28L1128.12 202.255C1126.89 201.6 1125.38 202.053 1124.72 203.287C1124.07 204.521 1124.52 206.032 1125.75 206.687L1125.81 206.712C1126.18 206.914 1126.59 206.989 1126.96 206.989C1127.87 206.989 1128.75 206.511 1129.2 205.629C1129.86 204.446 1129.38 202.909 1128.15 202.28Z" fill="white"/>
<path d="M1006.21 197.847H1006.16C1004.77 197.847 1003.64 198.981 1003.64 200.366C1003.64 201.751 1004.77 202.884 1006.16 202.884H1006.21C1007.59 202.884 1008.73 201.751 1008.73 200.366C1008.73 198.981 1007.62 197.847 1006.21 197.847Z" fill="white"/>
<path d="M996.089 197.847H996.039C994.654 197.847 993.522 198.981 993.522 200.366C993.522 201.751 994.654 202.884 996.039 202.884H996.089C997.474 202.884 998.607 201.751 998.607 200.366C998.607 198.981 997.499 197.847 996.089 197.847Z" fill="white"/>
<path d="M1056.81 197.847H1056.76C1055.37 197.847 1054.24 198.981 1054.24 200.366C1054.24 201.751 1055.37 202.884 1056.76 202.884H1056.81C1058.19 202.884 1059.32 201.751 1059.32 200.366C1059.32 198.981 1058.22 197.847 1056.81 197.847Z" fill="white"/>
<path d="M965.731 197.847H965.681C964.296 197.847 963.164 198.981 963.164 200.366C963.164 201.751 964.296 202.884 965.681 202.884H965.731C967.116 202.884 968.249 201.751 968.249 200.366C968.249 198.981 967.141 197.847 965.731 197.847Z" fill="white"/>
<path d="M955.612 197.847H955.561C954.177 197.847 953.044 198.981 953.044 200.366C953.044 201.751 954.177 202.884 955.561 202.884H955.612C956.996 202.884 958.129 201.751 958.129 200.366C958.129 198.981 957.021 197.847 955.612 197.847Z" fill="white"/>
<path d="M975.851 197.847H975.801C974.416 197.847 973.283 198.981 973.283 200.366C973.283 201.751 974.416 202.884 975.801 202.884H975.851C977.236 202.884 978.368 201.751 978.368 200.366C978.368 198.981 977.261 197.847 975.851 197.847Z" fill="white"/>
<path d="M985.97 197.847H985.92C984.535 197.847 983.428 198.981 983.428 200.366C983.428 201.751 984.586 202.884 985.97 202.884C987.355 202.884 988.487 201.751 988.487 200.366C988.487 198.981 987.38 197.847 985.97 197.847Z" fill="white"/>
<path d="M1036.57 197.847H1036.52C1035.13 197.847 1034.03 198.981 1034.03 200.366C1034.03 201.751 1035.18 202.884 1036.57 202.884C1037.95 202.884 1039.08 201.751 1039.08 200.366C1039.08 198.981 1037.98 197.847 1036.57 197.847Z" fill="white"/>
<path d="M1046.69 197.847H1046.64C1045.25 197.847 1044.12 198.981 1044.12 200.366C1044.12 201.751 1045.25 202.884 1046.64 202.884H1046.69C1048.07 202.884 1049.2 201.751 1049.2 200.366C1049.2 198.981 1048.1 197.847 1046.69 197.847Z" fill="white"/>
<path d="M1016.33 197.847H1016.28C1014.89 197.847 1013.76 198.981 1013.76 200.366C1013.76 201.751 1014.89 202.884 1016.28 202.884H1016.33C1017.71 202.884 1018.85 201.751 1018.85 200.366C1018.85 198.981 1017.74 197.847 1016.33 197.847Z" fill="white"/>
<path d="M1026.45 197.847H1026.4C1025.01 197.847 1023.88 198.981 1023.88 200.366C1023.88 201.751 1025.01 202.884 1026.4 202.884H1026.45C1027.83 202.884 1028.97 201.751 1028.97 200.366C1028.97 198.981 1027.86 197.847 1026.45 197.847Z" fill="white"/>
<path d="M942.422 141.006C939.073 141.006 936.254 143.575 935.549 147.026C935.499 147.227 935.247 147.227 935.197 147.026C934.492 143.575 931.673 141.006 928.325 141.006C924.423 141.006 921.276 144.457 921.276 148.713C921.276 149.897 921.931 151.987 922.409 152.994C924.825 158.258 931.043 163.244 933.888 165.334C934.769 165.989 935.952 165.989 936.833 165.334C939.678 163.244 945.895 158.258 948.312 152.994C948.765 151.987 949.445 149.897 949.445 148.713C949.445 144.457 946.298 141.006 942.422 141.006Z" fill="white"/>
<g opacity="0.4">
<path opacity="0.4" d="M1390.65 65.9575C1387.12 65.9575 1384.15 68.6522 1383.42 72.2787C1383.37 72.4802 1383.1 72.4802 1383.07 72.2787C1382.32 68.6522 1379.37 65.9575 1375.85 65.9575C1371.74 65.9575 1368.42 69.584 1368.42 74.0668C1368.42 75.326 1369.13 77.517 1369.6 78.5748C1372.15 84.1153 1378.69 89.3788 1381.71 91.595C1382.64 92.275 1383.88 92.275 1384.81 91.595C1387.8 89.3788 1394.35 84.1405 1396.92 78.5748C1397.39 77.517 1398.1 75.326 1398.1 74.0668C1398.07 69.584 1394.75 65.9575 1390.65 65.9575Z" fill="white"/>
</g>
<path d="M1143.93 274.055L1149.9 280.905L1287.31 166.72L1281.32 159.869L1143.93 274.055Z" fill="#0C4A5D"/>
<path d="M1147.98 168.231L1278.15 282.491L1284.12 275.616L1161.93 169.288L1147.98 168.231Z" fill="#0C4A5D"/>
<path d="M1166.66 182.888H1265.11L1270.12 168.508H1162.08L1166.66 182.888Z" fill="#0C4A5D"/>
<path d="M1281.88 275.44H1142.19V279.495H1281.88V275.44Z" fill="#0C4A5D"/>
<path d="M1114.78 157.578C1114.78 164.478 1120.37 170.069 1127.27 170.069H1318.5C1325.4 170.069 1330.99 164.478 1330.99 157.578V119.524H1114.75V157.578H1114.78Z" fill="#1392B9"/>
<g opacity="0.1">
<path opacity="0.1" d="M1331.01 119.524H1114.78V122.672H1331.01V119.524Z" fill="#1D1D1B"/>
</g>
<g opacity="0.1">
<path opacity="0.1" d="M1144.33 123.982C1144.48 124.536 1144.61 125.09 1144.76 125.669C1144.74 125.443 1144.61 124.914 1144.33 123.932C1144.33 123.957 1144.33 123.957 1144.33 123.982Z" fill="#1D1D1B"/>
</g>
<g opacity="0.1">
<path opacity="0.1" d="M1226.19 159.064C1218.92 158.837 1211.75 158.761 1204.5 159.215C1198.05 159.618 1191.63 160.096 1185.19 160.373C1178.44 160.65 1171.64 160.726 1164.92 160.172C1158.03 159.618 1150.88 158.736 1144.36 156.243C1136.63 153.296 1130.13 149.116 1125.25 142.316C1120.85 136.196 1119.16 128.263 1119.39 120.834C1119.41 120.381 1119.44 119.952 1119.49 119.524H1114.78V157.578C1114.78 164.478 1120.37 170.069 1127.27 170.069H1318.5C1324.57 170.069 1329.63 165.737 1330.76 159.995C1320.72 160.398 1310.67 160.6 1300.63 160.625C1275.81 160.675 1250.99 159.794 1226.19 159.064Z" fill="#1D1D1B"/>
</g>
<path d="M1323.87 68.4507L1322.2 49.1093L1306.29 37.9778C1303.17 35.812 1300.48 33.0921 1298.31 29.9944L1287.19 14.078L1267.86 12.4158C1264.08 12.0884 1260.38 11.1063 1256.96 9.49446L1239.36 1.25922L1238.1 1.86364V96.4304H1334.79L1326.84 79.4059C1325.17 75.9305 1324.19 72.2284 1323.87 68.4507Z" fill="#1392B9"/>
<path d="M1238.05 91.4691V96.38H1334.74L1332.45 91.4691H1238.05Z" fill="#0C4A5D"/>
<path d="M1287.94 12.7684C1287.24 12.3403 1286.31 12.5669 1285.9 13.2973L1236.79 95.6245C1236.36 96.3297 1236.59 97.2615 1237.32 97.6644C1237.57 97.8155 1237.82 97.8659 1238.08 97.8659C1238.58 97.8659 1239.08 97.6141 1239.36 97.1356L1288.47 14.8083C1288.87 14.1032 1288.65 13.1965 1287.94 12.7684Z" fill="#0C4A5D"/>
<path d="M1321.68 48.2782L1237.35 95.0956C1236.62 95.4986 1236.36 96.4052 1236.77 97.1356C1237.04 97.6392 1237.55 97.9163 1238.08 97.9163C1238.33 97.9163 1238.58 97.8659 1238.81 97.74L1323.14 50.9225C1323.87 50.5196 1324.12 49.6129 1323.71 48.8826C1323.31 48.1271 1322.41 47.8752 1321.68 48.2782Z" fill="#0C4A5D"/>
<g opacity="0.1">
<path opacity="0.1" d="M1238.05 92.2498V96.38H1334.74L1332.83 92.2498H1238.05Z" fill="#1D1D1B"/>
</g>
<path d="M1239.86 0C1238 0 1236.49 1.51105 1236.49 3.37469V95.4986C1236.49 97.3622 1238 98.8733 1239.86 98.8733C1241.73 98.8733 1243.24 97.3622 1243.24 95.4986V3.37469C1243.24 1.51105 1241.73 0 1239.86 0Z" fill="#0C4A5D"/>
<path d="M1331.19 95.2719H1114.6C1111.43 95.2719 1108.84 97.8407 1108.84 101.039V113.782C1108.84 116.956 1111.41 119.55 1114.6 119.55H1331.22C1334.39 119.55 1336.98 116.981 1336.98 113.782V101.039C1336.95 97.8407 1334.39 95.2719 1331.19 95.2719Z" fill="#73BED5"/>
<path d="M1150.6 249.268L1133.59 306.032L1136.82 307.001L1153.83 250.237L1150.6 249.268Z" fill="white"/>
<path d="M1115.86 267.975L1114.89 271.207L1171.64 288.209L1172.6 284.976L1115.86 267.975Z" fill="white"/>
<path d="M1168.94 262.621L1116.81 290.74L1118.41 293.71L1170.54 265.592L1168.94 262.621Z" fill="white"/>
<path d="M1131.26 251.292L1128.29 252.893L1156.4 305.058L1159.37 303.457L1131.26 251.292Z" fill="white"/>
<path d="M1153.42 245.924C1135.87 240.66 1117.32 250.684 1112.06 268.237C1106.8 285.791 1116.82 304.351 1134.36 309.615C1137.54 310.572 1140.73 311.025 1143.88 311.025C1158.18 311.025 1171.42 301.707 1175.72 287.327C1180.96 269.748 1170.97 251.162 1153.42 245.924ZM1167.97 284.985C1163.99 298.282 1149.95 305.837 1136.68 301.858C1123.39 297.879 1115.84 283.826 1119.81 270.554C1123.06 259.675 1133.08 252.623 1143.9 252.623C1146.3 252.623 1148.71 252.976 1151.1 253.681C1164.37 257.635 1171.95 271.687 1167.97 284.985Z" fill="#1392B9"/>
<path d="M1150.08 278.544C1150.56 275.099 1148.16 271.919 1144.71 271.44C1141.27 270.961 1138.09 273.364 1137.61 276.808C1137.13 280.253 1139.54 283.433 1142.98 283.912C1146.42 284.391 1149.6 281.988 1150.08 278.544Z" fill="#0C4A5D"/>
<path d="M1287.58 249.286L1270.57 306.05L1273.8 307.019L1290.81 250.255L1287.58 249.286Z" fill="white"/>
<path d="M1252.84 267.96L1251.87 271.193L1308.62 288.194L1309.58 284.961L1252.84 267.96Z" fill="white"/>
<path d="M1306.06 262.536L1253.92 290.666L1255.52 293.636L1307.66 265.506L1306.06 262.536Z" fill="white"/>
<path d="M1268.26 251.288L1265.29 252.889L1293.39 305.054L1296.36 303.453L1268.26 251.288Z" fill="white"/>
<path d="M1290.39 245.924C1272.84 240.66 1254.29 250.684 1249.03 268.237C1243.77 285.791 1253.78 304.351 1271.33 309.615C1274.5 310.572 1277.7 311.025 1280.84 311.025C1295.14 311.025 1308.38 301.707 1312.69 287.327C1317.95 269.748 1307.96 251.162 1290.39 245.924ZM1304.94 284.985C1300.96 298.282 1286.91 305.837 1273.65 301.858C1260.35 297.879 1252.8 283.826 1256.78 270.554C1260.05 259.675 1270.05 252.623 1280.87 252.623C1283.26 252.623 1285.68 252.976 1288.07 253.681C1301.36 257.635 1308.91 271.687 1304.94 284.985Z" fill="#1392B9"/>
<path d="M1283.93 283.299C1286.99 281.649 1288.13 277.83 1286.49 274.769C1284.84 271.708 1281.02 270.564 1277.96 272.214C1274.9 273.864 1273.76 277.683 1275.41 280.744C1277.05 283.805 1280.87 284.949 1283.93 283.299Z" fill="#0C4A5D"/>
<path d="M1056.08 80.6651C1054.44 82.6043 1054.69 85.4753 1056.63 87.1122L1193.29 208.324L1200.14 202.708L1062.52 80.0858C1060.58 78.474 1057.69 78.7259 1056.08 80.6651Z" fill="#0C4A5D"/>
<path d="M1056.38 67.8967C1054.26 65.4538 1050.56 65.202 1048.12 67.3174L1047.24 68.073C1044.8 70.1884 1044.55 73.8905 1046.66 76.3334L1060.33 92.0232C1062.45 94.466 1066.15 94.7179 1068.59 92.6024L1069.47 91.8469C1071.91 89.7314 1072.16 86.0293 1070.05 83.5864L1056.38 67.8967Z" fill="white"/>
<path d="M823.001 84.5183C822.347 84.5183 821.692 84.2412 821.214 83.7879C821.088 83.662 820.987 83.5361 820.912 83.4102C820.811 83.2842 820.736 83.1331 820.685 82.982C820.61 82.8309 820.585 82.6798 820.534 82.5035C820.509 82.3524 820.484 82.1761 820.484 81.9998C820.484 81.8235 820.509 81.6724 820.534 81.4961C820.559 81.345 820.61 81.1688 820.685 81.0176C820.761 80.8665 820.836 80.7154 820.912 80.5895C821.013 80.4384 821.113 80.3125 821.214 80.2118C821.793 79.6325 822.674 79.3555 823.48 79.5318C823.631 79.557 823.807 79.6073 823.958 79.6829C824.109 79.7584 824.26 79.834 824.386 79.9095C824.512 80.0103 824.663 80.111 824.763 80.2118C824.889 80.3377 824.99 80.4636 825.065 80.5895C825.166 80.7154 825.242 80.8665 825.292 81.0176C825.368 81.1688 825.393 81.3199 825.443 81.4961C825.468 81.6473 825.493 81.8235 825.493 81.9998C825.493 82.1509 825.468 82.3272 825.443 82.5035C825.418 82.6546 825.368 82.8309 825.292 82.982C825.217 83.1331 825.141 83.2842 825.065 83.4102C824.965 83.5361 824.864 83.6872 824.738 83.7879C824.31 84.2412 823.656 84.5183 823.001 84.5183Z" fill="white"/>
<path d="M810.415 81.9998C810.415 80.6147 811.548 79.4814 812.932 79.4814C814.317 79.4814 815.449 80.6147 815.449 81.9998C815.449 83.385 814.317 84.5183 812.932 84.5183C811.548 84.5183 810.415 83.385 810.415 81.9998ZM800.346 81.9998C800.346 80.6147 801.479 79.4814 802.863 79.4814C804.248 79.4814 805.38 80.6147 805.38 81.9998C805.38 83.385 804.248 84.5183 802.863 84.5183C801.453 84.5183 800.346 83.385 800.346 81.9998ZM790.277 81.9998C790.277 80.6147 791.409 79.4814 792.794 79.4814C794.178 79.4814 795.311 80.6147 795.311 81.9998C795.311 83.385 794.178 84.5183 792.794 84.5183C791.384 84.5183 790.277 83.385 790.277 81.9998ZM780.207 81.9998C780.207 80.6147 781.34 79.4814 782.725 79.4814C784.109 79.4814 785.242 80.6147 785.242 81.9998C785.242 83.385 784.109 84.5183 782.725 84.5183C781.315 84.5183 780.207 83.385 780.207 81.9998ZM770.138 81.9998C770.138 80.6147 771.271 79.4814 772.656 79.4814C774.04 79.4814 775.173 80.6147 775.173 81.9998C775.173 83.385 774.04 84.5183 772.656 84.5183C771.246 84.5183 770.138 83.385 770.138 81.9998ZM760.069 81.9998C760.069 80.6147 761.202 79.4814 762.586 79.4814C763.971 79.4814 765.104 80.6147 765.104 81.9998C765.104 83.385 763.971 84.5183 762.586 84.5183C761.177 84.5183 760.069 83.385 760.069 81.9998ZM749.975 81.9998C749.975 80.6147 751.108 79.4814 752.492 79.4814C753.877 79.4814 755.009 80.6147 755.009 81.9998C755.009 83.385 753.877 84.5183 752.492 84.5183C751.108 84.5183 749.975 83.385 749.975 81.9998ZM739.906 81.9998C739.906 80.6147 741.038 79.4814 742.423 79.4814C743.807 79.4814 744.94 80.6147 744.94 81.9998C744.94 83.385 743.807 84.5183 742.423 84.5183C741.038 84.5183 739.906 83.385 739.906 81.9998ZM729.837 81.9998C729.837 80.6147 730.969 79.4814 732.354 79.4814C733.738 79.4814 734.871 80.6147 734.871 81.9998C734.871 83.385 733.738 84.5183 732.354 84.5183C730.969 84.5183 729.837 83.385 729.837 81.9998ZM719.767 81.9998C719.767 80.6147 720.9 79.4814 722.285 79.4814C723.669 79.4814 724.802 80.6147 724.802 81.9998C724.802 83.385 723.669 84.5183 722.285 84.5183C720.9 84.5183 719.767 83.385 719.767 81.9998ZM709.698 81.9998C709.698 80.6147 710.831 79.4814 712.216 79.4814C713.6 79.4814 714.733 80.6147 714.733 81.9998C714.733 83.385 713.6 84.5183 712.216 84.5183C710.831 84.5183 709.698 83.385 709.698 81.9998ZM699.629 81.9998C699.629 80.6147 700.762 79.4814 702.146 79.4814C703.531 79.4814 704.664 80.6147 704.664 81.9998C704.664 83.385 703.531 84.5183 702.146 84.5183C700.762 84.5183 699.629 83.385 699.629 81.9998ZM689.56 81.9998C689.56 80.6147 690.693 79.4814 692.077 79.4814C693.462 79.4814 694.595 80.6147 694.595 81.9998C694.595 83.385 693.462 84.5183 692.077 84.5183C690.693 84.5183 689.56 83.385 689.56 81.9998ZM679.491 81.9998C679.491 80.6147 680.624 79.4814 682.008 79.4814C683.393 79.4814 684.526 80.6147 684.526 81.9998C684.526 83.385 683.393 84.5183 682.008 84.5183C680.624 84.5183 679.491 83.385 679.491 81.9998ZM669.422 81.9998C669.422 80.6147 670.555 79.4814 671.939 79.4814C673.324 79.4814 674.456 80.6147 674.456 81.9998C674.456 83.385 673.324 84.5183 671.939 84.5183C670.555 84.5183 669.422 83.385 669.422 81.9998ZM659.353 81.9998C659.353 80.6147 660.485 79.4814 661.87 79.4814C663.254 79.4814 664.387 80.6147 664.387 81.9998C664.387 83.385 663.254 84.5183 661.87 84.5183C660.485 84.5183 659.353 83.385 659.353 81.9998ZM649.284 81.9998C649.284 80.6147 650.416 79.4814 651.801 79.4814C653.185 79.4814 654.318 80.6147 654.318 81.9998C654.318 83.385 653.185 84.5183 651.801 84.5183C650.416 84.5183 649.284 83.385 649.284 81.9998ZM639.214 81.9998C639.214 80.6147 640.347 79.4814 641.732 79.4814C643.116 79.4814 644.249 80.6147 644.249 81.9998C644.249 83.385 643.116 84.5183 641.732 84.5183C640.347 84.5183 639.214 83.385 639.214 81.9998ZM629.145 81.9998C629.145 80.6147 630.278 79.4814 631.663 79.4814C633.047 79.4814 634.18 80.6147 634.18 81.9998C634.18 83.385 633.047 84.5183 631.663 84.5183C630.278 84.5183 629.145 83.385 629.145 81.9998ZM619.076 81.9998C619.076 80.6147 620.209 79.4814 621.593 79.4814C622.978 79.4814 624.111 80.6147 624.111 81.9998C624.111 83.385 622.978 84.5183 621.593 84.5183C620.209 84.5183 619.076 83.385 619.076 81.9998ZM609.007 81.9998C609.007 80.6147 610.14 79.4814 611.524 79.4814C612.909 79.4814 614.042 80.6147 614.042 81.9998C614.042 83.385 612.909 84.5183 611.524 84.5183C610.14 84.5183 609.007 83.385 609.007 81.9998ZM598.938 81.9998C598.938 80.6147 600.071 79.4814 601.455 79.4814C602.84 79.4814 603.972 80.6147 603.972 81.9998C603.972 83.385 602.84 84.5183 601.455 84.5183C600.071 84.5183 598.938 83.385 598.938 81.9998ZM588.869 81.9998C588.869 80.6147 590.001 79.4814 591.386 79.4814C592.771 79.4814 593.903 80.6147 593.903 81.9998C593.903 83.385 592.771 84.5183 591.386 84.5183C590.001 84.5183 588.869 83.385 588.869 81.9998ZM578.8 81.9998C578.8 80.6147 579.932 79.4814 581.317 79.4814C582.701 79.4814 583.834 80.6147 583.834 81.9998C583.834 83.385 582.701 84.5183 581.317 84.5183C579.932 84.5183 578.8 83.385 578.8 81.9998ZM568.73 81.9998C568.73 80.6147 569.863 79.4814 571.248 79.4814C572.632 79.4814 573.765 80.6147 573.765 81.9998C573.765 83.385 572.632 84.5183 571.248 84.5183C569.838 84.5183 568.73 83.385 568.73 81.9998ZM558.661 81.9998C558.661 80.6147 559.794 79.4814 561.179 79.4814C562.563 79.4814 563.696 80.6147 563.696 81.9998C563.696 83.385 562.563 84.5183 561.179 84.5183C559.769 84.5183 558.661 83.385 558.661 81.9998ZM548.592 81.9998C548.592 80.6147 549.725 79.4814 551.109 79.4814C552.494 79.4814 553.627 80.6147 553.627 81.9998C553.627 83.385 552.494 84.5183 551.109 84.5183C549.7 84.5183 548.592 83.385 548.592 81.9998ZM538.523 81.9998C538.523 80.6147 539.656 79.4814 541.04 79.4814C542.425 79.4814 543.558 80.6147 543.558 81.9998C543.558 83.385 542.425 84.5183 541.04 84.5183C539.631 84.5183 538.523 83.385 538.523 81.9998ZM528.454 81.9998C528.454 80.6147 529.587 79.4814 530.971 79.4814C532.356 79.4814 533.489 80.6147 533.489 81.9998C533.489 83.385 532.356 84.5183 530.971 84.5183C529.562 84.5183 528.454 83.385 528.454 81.9998ZM518.36 81.9998C518.36 80.6147 519.492 79.4814 520.877 79.4814C522.261 79.4814 523.394 80.6147 523.394 81.9998C523.394 83.385 522.261 84.5183 520.877 84.5183C519.492 84.5183 518.36 83.385 518.36 81.9998ZM508.29 81.9998C508.29 80.6147 509.423 79.4814 510.808 79.4814C512.192 79.4814 513.325 80.6147 513.325 81.9998C513.325 83.385 512.192 84.5183 510.808 84.5183C509.423 84.5183 508.29 83.385 508.29 81.9998ZM498.221 81.9998C498.221 80.6147 499.354 79.4814 500.739 79.4814C502.123 79.4814 503.256 80.6147 503.256 81.9998C503.256 83.385 502.123 84.5183 500.739 84.5183C499.354 84.5183 498.221 83.385 498.221 81.9998ZM488.152 81.9998C488.152 80.6147 489.285 79.4814 490.669 79.4814C492.054 79.4814 493.187 80.6147 493.187 81.9998C493.187 83.385 492.054 84.5183 490.669 84.5183C489.285 84.5183 488.152 83.385 488.152 81.9998ZM478.083 81.9998C478.083 80.6147 479.216 79.4814 480.6 79.4814C481.985 79.4814 483.118 80.6147 483.118 81.9998C483.118 83.385 481.985 84.5183 480.6 84.5183C479.216 84.5183 478.083 83.385 478.083 81.9998ZM468.014 81.9998C468.014 80.6147 469.147 79.4814 470.531 79.4814C471.916 79.4814 473.049 80.6147 473.049 81.9998C473.049 83.385 471.916 84.5183 470.531 84.5183C469.147 84.5183 468.014 83.385 468.014 81.9998ZM457.945 81.9998C457.945 80.6147 459.078 79.4814 460.462 79.4814C461.847 79.4814 462.979 80.6147 462.979 81.9998C462.979 83.385 461.847 84.5183 460.462 84.5183C459.078 84.5183 457.945 83.385 457.945 81.9998ZM447.876 81.9998C447.876 80.6147 449.008 79.4814 450.393 79.4814C451.777 79.4814 452.91 80.6147 452.91 81.9998C452.91 83.385 451.777 84.5183 450.393 84.5183C449.008 84.5183 447.876 83.385 447.876 81.9998ZM437.807 81.9998C437.807 80.6147 438.939 79.4814 440.324 79.4814C441.708 79.4814 442.841 80.6147 442.841 81.9998C442.841 83.385 441.708 84.5183 440.324 84.5183C438.939 84.5183 437.807 83.385 437.807 81.9998ZM427.737 81.9998C427.737 80.6147 428.87 79.4814 430.255 79.4814C431.639 79.4814 432.772 80.6147 432.772 81.9998C432.772 83.385 431.639 84.5183 430.255 84.5183C428.87 84.5183 427.737 83.385 427.737 81.9998ZM417.668 81.9998C417.668 80.6147 418.801 79.4814 420.186 79.4814C421.57 79.4814 422.703 80.6147 422.703 81.9998C422.703 83.385 421.57 84.5183 420.186 84.5183C418.801 84.5183 417.668 83.385 417.668 81.9998ZM407.599 81.9998C407.599 80.6147 408.732 79.4814 410.116 79.4814C411.501 79.4814 412.634 80.6147 412.634 81.9998C412.634 83.385 411.501 84.5183 410.116 84.5183C408.732 84.5183 407.599 83.385 407.599 81.9998ZM397.53 81.9998C397.53 80.6147 398.663 79.4814 400.047 79.4814C401.432 79.4814 402.565 80.6147 402.565 81.9998C402.565 83.385 401.432 84.5183 400.047 84.5183C398.663 84.5183 397.53 83.385 397.53 81.9998ZM387.461 81.9998C387.461 80.6147 388.594 79.4814 389.978 79.4814C391.363 79.4814 392.495 80.6147 392.495 81.9998C392.495 83.385 391.363 84.5183 389.978 84.5183C388.594 84.5183 387.461 83.385 387.461 81.9998ZM377.392 81.9998C377.392 80.6147 378.525 79.4814 379.909 79.4814C381.294 79.4814 382.426 80.6147 382.426 81.9998C382.426 83.385 381.294 84.5183 379.909 84.5183C378.525 84.5183 377.392 83.385 377.392 81.9998ZM367.323 81.9998C367.323 80.6147 368.455 79.4814 369.84 79.4814C371.224 79.4814 372.357 80.6147 372.357 81.9998C372.357 83.385 371.224 84.5183 369.84 84.5183C368.455 84.5183 367.323 83.385 367.323 81.9998ZM357.253 81.9998C357.253 80.6147 358.386 79.4814 359.771 79.4814C361.155 79.4814 362.288 80.6147 362.288 81.9998C362.288 83.385 361.155 84.5183 359.771 84.5183C358.386 84.5183 357.253 83.385 357.253 81.9998ZM347.184 81.9998C347.184 80.6147 348.317 79.4814 349.702 79.4814C351.086 79.4814 352.219 80.6147 352.219 81.9998C352.219 83.385 351.086 84.5183 349.702 84.5183C348.317 84.5183 347.184 83.385 347.184 81.9998ZM337.115 81.9998C337.115 80.6147 338.248 79.4814 339.633 79.4814C341.017 79.4814 342.15 80.6147 342.15 81.9998C342.15 83.385 341.017 84.5183 339.633 84.5183C338.223 84.5183 337.115 83.385 337.115 81.9998ZM327.046 81.9998C327.046 80.6147 328.179 79.4814 329.563 79.4814C330.948 79.4814 332.081 80.6147 332.081 81.9998C332.081 83.385 330.948 84.5183 329.563 84.5183C328.154 84.5183 327.046 83.385 327.046 81.9998ZM316.977 81.9998C316.977 80.6147 318.11 79.4814 319.494 79.4814C320.879 79.4814 322.011 80.6147 322.011 81.9998C322.011 83.385 320.879 84.5183 319.494 84.5183C318.085 84.5183 316.977 83.385 316.977 81.9998ZM306.908 81.9998C306.908 80.6147 308.041 79.4814 309.425 79.4814C310.81 79.4814 311.942 80.6147 311.942 81.9998C311.942 83.385 310.81 84.5183 309.425 84.5183C308.015 84.5183 306.908 83.385 306.908 81.9998ZM296.839 81.9998C296.839 80.6147 297.971 79.4814 299.356 79.4814C300.74 79.4814 301.873 80.6147 301.873 81.9998C301.873 83.385 300.74 84.5183 299.356 84.5183C297.946 84.5183 296.839 83.385 296.839 81.9998ZM286.77 81.9998C286.77 80.6147 287.902 79.4814 289.287 79.4814C290.671 79.4814 291.804 80.6147 291.804 81.9998C291.804 83.385 290.671 84.5183 289.287 84.5183C287.877 84.5183 286.77 83.385 286.77 81.9998ZM276.7 81.9998C276.7 80.6147 277.833 79.4814 279.218 79.4814C280.602 79.4814 281.735 80.6147 281.735 81.9998C281.735 83.385 280.602 84.5183 279.218 84.5183C277.808 84.5183 276.7 83.385 276.7 81.9998ZM266.631 81.9998C266.631 80.6147 267.764 79.4814 269.149 79.4814C270.533 79.4814 271.666 80.6147 271.666 81.9998C271.666 83.385 270.533 84.5183 269.149 84.5183C267.739 84.5183 266.631 83.385 266.631 81.9998ZM256.537 81.9998C256.537 80.6147 257.67 79.4814 259.054 79.4814C260.439 79.4814 261.572 80.6147 261.572 81.9998C261.572 83.385 260.439 84.5183 259.054 84.5183C257.67 84.5183 256.537 83.385 256.537 81.9998ZM246.468 81.9998C246.468 80.6147 247.601 79.4814 248.985 79.4814C250.37 79.4814 251.502 80.6147 251.502 81.9998C251.502 83.385 250.37 84.5183 248.985 84.5183C247.601 84.5183 246.468 83.385 246.468 81.9998ZM236.399 81.9998C236.399 80.6147 237.531 79.4814 238.916 79.4814C240.301 79.4814 241.433 80.6147 241.433 81.9998C241.433 83.385 240.301 84.5183 238.916 84.5183C237.531 84.5183 236.399 83.385 236.399 81.9998ZM226.33 81.9998C226.33 80.6147 227.462 79.4814 228.847 79.4814C230.231 79.4814 231.364 80.6147 231.364 81.9998C231.364 83.385 230.231 84.5183 228.847 84.5183C227.462 84.5183 226.33 83.385 226.33 81.9998ZM216.26 81.9998C216.26 80.6147 217.393 79.4814 218.778 79.4814C220.162 79.4814 221.295 80.6147 221.295 81.9998C221.295 83.385 220.162 84.5183 218.778 84.5183C217.393 84.5183 216.26 83.385 216.26 81.9998ZM206.191 81.9998C206.191 80.6147 207.324 79.4814 208.709 79.4814C210.093 79.4814 211.226 80.6147 211.226 81.9998C211.226 83.385 210.093 84.5183 208.709 84.5183C207.324 84.5183 206.191 83.385 206.191 81.9998ZM196.122 81.9998C196.122 80.6147 197.255 79.4814 198.639 79.4814C200.024 79.4814 201.157 80.6147 201.157 81.9998C201.157 83.385 200.024 84.5183 198.639 84.5183C197.255 84.5183 196.122 83.385 196.122 81.9998ZM186.053 81.9998C186.053 80.6147 187.186 79.4814 188.57 79.4814C189.955 79.4814 191.088 80.6147 191.088 81.9998C191.088 83.385 189.955 84.5183 188.57 84.5183C187.186 84.5183 186.053 83.385 186.053 81.9998ZM175.984 81.9998C175.984 80.6147 177.117 79.4814 178.501 79.4814C179.886 79.4814 181.018 80.6147 181.018 81.9998C181.018 83.385 179.886 84.5183 178.501 84.5183C177.117 84.5183 175.984 83.385 175.984 81.9998ZM165.915 81.9998C165.915 80.6147 167.048 79.4814 168.432 79.4814C169.817 79.4814 170.949 80.6147 170.949 81.9998C170.949 83.385 169.817 84.5183 168.432 84.5183C167.048 84.5183 165.915 83.385 165.915 81.9998ZM155.846 81.9998C155.846 80.6147 156.978 79.4814 158.363 79.4814C159.747 79.4814 160.88 80.6147 160.88 81.9998C160.88 83.385 159.747 84.5183 158.363 84.5183C156.978 84.5183 155.846 83.385 155.846 81.9998ZM145.777 81.9998C145.777 80.6147 146.909 79.4814 148.294 79.4814C149.678 79.4814 150.811 80.6147 150.811 81.9998C150.811 83.385 149.678 84.5183 148.294 84.5183C146.909 84.5183 145.777 83.385 145.777 81.9998ZM135.707 81.9998C135.707 80.6147 136.84 79.4814 138.225 79.4814C139.609 79.4814 140.742 80.6147 140.742 81.9998C140.742 83.385 139.609 84.5183 138.225 84.5183C136.84 84.5183 135.707 83.385 135.707 81.9998ZM125.638 81.9998C125.638 80.6147 126.771 79.4814 128.156 79.4814C129.54 79.4814 130.673 80.6147 130.673 81.9998C130.673 83.385 129.54 84.5183 128.156 84.5183C126.771 84.5183 125.638 83.385 125.638 81.9998ZM115.569 81.9998C115.569 80.6147 116.702 79.4814 118.086 79.4814C119.471 79.4814 120.604 80.6147 120.604 81.9998C120.604 83.385 119.471 84.5183 118.086 84.5183C116.702 84.5183 115.569 83.385 115.569 81.9998ZM105.5 81.9998C105.5 80.6147 106.633 79.4814 108.017 79.4814C109.402 79.4814 110.535 80.6147 110.535 81.9998C110.535 83.385 109.402 84.5183 108.017 84.5183C106.633 84.5183 105.5 83.385 105.5 81.9998ZM95.4308 81.9998C95.4308 80.6147 96.5637 79.4814 97.9482 79.4814C99.3326 79.4814 100.465 80.6147 100.465 81.9998C100.465 83.385 99.3326 84.5183 97.9482 84.5183C96.5637 84.5183 95.4308 83.385 95.4308 81.9998ZM85.3618 81.9998C85.3618 80.6147 86.4945 79.4814 87.879 79.4814C89.2635 79.4814 90.3963 80.6147 90.3963 81.9998C90.3963 83.385 89.2635 84.5183 87.879 84.5183C86.4945 84.5183 85.3618 83.385 85.3618 81.9998ZM75.2926 81.9998C75.2926 80.6147 76.4254 79.4814 77.8099 79.4814C79.1944 79.4814 80.3271 80.6147 80.3271 81.9998C80.3271 83.385 79.1944 84.5183 77.8099 84.5183C76.4002 84.5183 75.2926 83.385 75.2926 81.9998ZM65.2234 81.9998C65.2234 80.6147 66.3563 79.4814 67.7408 79.4814C69.1252 79.4814 70.2581 80.6147 70.2581 81.9998C70.2581 83.385 69.1252 84.5183 67.7408 84.5183C66.3311 84.5183 65.2234 83.385 65.2234 81.9998ZM55.1544 81.9998C55.1544 80.6147 56.2871 79.4814 57.6716 79.4814C59.0562 79.4814 60.1889 80.6147 60.1889 81.9998C60.1889 83.385 59.0562 84.5183 57.6716 84.5183C56.262 84.5183 55.1544 83.385 55.1544 81.9998ZM45.0852 81.9998C45.0852 80.6147 46.218 79.4814 47.6025 79.4814C48.987 79.4814 50.1198 80.6147 50.1198 81.9998C50.1198 83.385 48.987 84.5183 47.6025 84.5183C46.1928 84.5183 45.0852 83.385 45.0852 81.9998ZM35.0161 81.9998C35.0161 80.6147 36.1489 79.4814 37.5334 79.4814C38.9178 79.4814 40.0507 80.6147 40.0507 81.9998C40.0507 83.385 38.9178 84.5183 37.5334 84.5183C36.1237 84.5183 35.0161 83.385 35.0161 81.9998ZM24.9218 81.9998C24.9218 80.6147 26.0545 79.4814 27.439 79.4814C28.8235 79.4814 29.9563 80.6147 29.9563 81.9998C29.9563 83.385 28.8235 84.5183 27.439 84.5183C26.0545 84.5183 24.9218 83.385 24.9218 81.9998ZM14.8526 81.9998C14.8526 80.6147 15.9854 79.4814 17.3699 79.4814C18.7544 79.4814 19.8871 80.6147 19.8871 81.9998C19.8871 83.385 18.7544 84.5183 17.3699 84.5183C15.9854 84.5183 14.8526 83.385 14.8526 81.9998ZM4.78345 81.9998C4.78345 80.6147 5.91626 79.4814 7.30078 79.4814C8.68524 79.4814 9.81805 80.6147 9.81805 81.9998C9.81805 83.385 8.68524 84.5183 7.30078 84.5183C5.91626 84.5183 4.78345 83.385 4.78345 81.9998ZM-5.28564 81.9998C-5.28564 80.6147 -4.15289 79.4814 -2.76837 79.4814C-1.38385 79.4814 -0.251099 80.6147 -0.251099 81.9998C-0.251099 83.385 -1.38385 84.5183 -2.76837 84.5183C-4.15289 84.5183 -5.28564 83.385 -5.28564 81.9998ZM-15.3548 81.9998C-15.3548 80.6147 -14.222 79.4814 -12.8375 79.4814C-11.453 79.4814 -10.3203 80.6147 -10.3203 81.9998C-10.3203 83.385 -11.453 84.5183 -12.8375 84.5183C-14.222 84.5183 -15.3548 83.385 -15.3548 81.9998ZM-25.4239 81.9998C-25.4239 80.6147 -24.2911 79.4814 -22.9066 79.4814C-21.5221 79.4814 -20.3893 80.6147 -20.3893 81.9998C-20.3893 83.385 -21.5221 84.5183 -22.9066 84.5183C-24.2911 84.5183 -25.4239 83.385 -25.4239 81.9998ZM-35.493 81.9998C-35.493 80.6147 -34.3603 79.4814 -32.9758 79.4814C-31.5913 79.4814 -30.4585 80.6147 -30.4585 81.9998C-30.4585 83.385 -31.5913 84.5183 -32.9758 84.5183C-34.3603 84.5183 -35.493 83.385 -35.493 81.9998ZM-45.5622 81.9998C-45.5622 80.6147 -44.4294 79.4814 -43.0449 79.4814C-41.6604 79.4814 -40.5276 80.6147 -40.5276 81.9998C-40.5276 83.385 -41.6604 84.5183 -43.0449 84.5183C-44.4294 84.5183 -45.5622 83.385 -45.5622 81.9998ZM-55.6313 81.9998C-55.6313 80.6147 -54.4985 79.4814 -53.114 79.4814C-51.7295 79.4814 -50.5967 80.6147 -50.5967 81.9998C-50.5967 83.385 -51.7295 84.5183 -53.114 84.5183C-54.4985 84.5183 -55.6313 83.385 -55.6313 81.9998ZM-65.7005 81.9998C-65.7005 80.6147 -64.5677 79.4814 -63.1832 79.4814C-61.7987 79.4814 -60.6659 80.6147 -60.6659 81.9998C-60.6659 83.385 -61.7987 84.5183 -63.1832 84.5183C-64.5677 84.5183 -65.7005 83.385 -65.7005 81.9998ZM-75.7696 81.9998C-75.7696 80.6147 -74.6368 79.4814 -73.2523 79.4814C-71.8678 79.4814 -70.735 80.6147 -70.735 81.9998C-70.735 83.385 -71.8678 84.5183 -73.2523 84.5183C-74.6368 84.5183 -75.7696 83.385 -75.7696 81.9998ZM-85.8387 81.9998C-85.8387 80.6147 -84.7059 79.4814 -83.3214 79.4814C-81.9369 79.4814 -80.8042 80.6147 -80.8042 81.9998C-80.8042 83.385 -81.9369 84.5183 -83.3214 84.5183C-84.7059 84.5183 -85.8387 83.385 -85.8387 81.9998ZM-95.9079 81.9998C-95.9079 80.6147 -94.7751 79.4814 -93.3906 79.4814C-92.0061 79.4814 -90.8733 80.6147 -90.8733 81.9998C-90.8733 83.385 -92.0061 84.5183 -93.3906 84.5183C-94.7751 84.5183 -95.9079 83.385 -95.9079 81.9998ZM-105.977 81.9998C-105.977 80.6147 -104.844 79.4814 -103.46 79.4814C-102.075 79.4814 -100.942 80.6147 -100.942 81.9998C-100.942 83.385 -102.075 84.5183 -103.46 84.5183C-104.844 84.5183 -105.977 83.385 -105.977 81.9998ZM-116.046 81.9998C-116.046 80.6147 -114.913 79.4814 -113.529 79.4814C-112.144 79.4814 -111.012 80.6147 -111.012 81.9998C-111.012 83.385 -112.144 84.5183 -113.529 84.5183C-114.913 84.5183 -116.046 83.385 -116.046 81.9998ZM-126.115 81.9998C-126.115 80.6147 -124.982 79.4814 -123.598 79.4814C-122.213 79.4814 -121.081 80.6147 -121.081 81.9998C-121.081 83.385 -122.213 84.5183 -123.598 84.5183C-124.982 84.5183 -126.115 83.385 -126.115 81.9998ZM-136.184 81.9998C-136.184 80.6147 -135.052 79.4814 -133.667 79.4814C-132.283 79.4814 -131.15 80.6147 -131.15 81.9998C-131.15 83.385 -132.283 84.5183 -133.667 84.5183C-135.052 84.5183 -136.184 83.385 -136.184 81.9998ZM-146.254 81.9998C-146.254 80.6147 -145.121 79.4814 -143.736 79.4814C-142.352 79.4814 -141.219 80.6147 -141.219 81.9998C-141.219 83.385 -142.352 84.5183 -143.736 84.5183C-145.121 84.5183 -146.254 83.385 -146.254 81.9998ZM-156.323 81.9998C-156.323 80.6147 -155.19 79.4814 -153.805 79.4814C-152.421 79.4814 -151.288 80.6147 -151.288 81.9998C-151.288 83.385 -152.421 84.5183 -153.805 84.5183C-155.215 84.5183 -156.323 83.385 -156.323 81.9998ZM-166.392 81.9998C-166.392 80.6147 -165.259 79.4814 -163.875 79.4814C-162.49 79.4814 -161.357 80.6147 -161.357 81.9998C-161.357 83.385 -162.49 84.5183 -163.875 84.5183C-165.284 84.5183 -166.392 83.385 -166.392 81.9998ZM-176.461 81.9998C-176.461 80.6147 -175.328 79.4814 -173.944 79.4814C-172.559 79.4814 -171.426 80.6147 -171.426 81.9998C-171.426 83.385 -172.559 84.5183 -173.944 84.5183C-175.353 84.5183 -176.461 83.385 -176.461 81.9998ZM-186.53 81.9998C-186.53 80.6147 -185.397 79.4814 -184.013 79.4814C-182.628 79.4814 -181.495 80.6147 -181.495 81.9998C-181.495 83.385 -182.628 84.5183 -184.013 84.5183C-185.422 84.5183 -186.53 83.385 -186.53 81.9998ZM-196.599 81.9998C-196.599 80.6147 -195.466 79.4814 -194.082 79.4814C-192.697 79.4814 -191.565 80.6147 -191.565 81.9998C-191.565 83.385 -192.697 84.5183 -194.082 84.5183C-195.492 84.5183 -196.599 83.385 -196.599 81.9998ZM-206.693 81.9998C-206.693 80.6147 -205.561 79.4814 -204.176 79.4814C-202.792 79.4814 -201.659 80.6147 -201.659 81.9998C-201.659 83.385 -202.792 84.5183 -204.176 84.5183C-205.561 84.5183 -206.693 83.385 -206.693 81.9998ZM-216.763 81.9998C-216.763 80.6147 -215.63 79.4814 -214.245 79.4814C-212.861 79.4814 -211.728 80.6147 -211.728 81.9998C-211.728 83.385 -212.861 84.5183 -214.245 84.5183C-215.63 84.5183 -216.763 83.385 -216.763 81.9998ZM-226.832 81.9998C-226.832 80.6147 -225.699 79.4814 -224.314 79.4814C-222.93 79.4814 -221.797 80.6147 -221.797 81.9998C-221.797 83.385 -222.93 84.5183 -224.314 84.5183C-225.699 84.5183 -226.832 83.385 -226.832 81.9998ZM-236.901 81.9998C-236.901 80.6147 -235.768 79.4814 -234.384 79.4814C-232.999 79.4814 -231.866 80.6147 -231.866 81.9998C-231.866 83.385 -232.999 84.5183 -234.384 84.5183C-235.768 84.5183 -236.901 83.385 -236.901 81.9998ZM-246.97 81.9998C-246.97 80.6147 -245.837 79.4814 -244.453 79.4814C-243.068 79.4814 -241.935 80.6147 -241.935 81.9998C-241.935 83.385 -243.068 84.5183 -244.453 84.5183C-245.837 84.5183 -246.97 83.385 -246.97 81.9998ZM-257.039 81.9998C-257.039 80.6147 -255.906 79.4814 -254.522 79.4814C-253.137 79.4814 -252.005 80.6147 -252.005 81.9998C-252.005 83.385 -253.137 84.5183 -254.522 84.5183C-255.906 84.5183 -257.039 83.385 -257.039 81.9998ZM-267.108 81.9998C-267.108 80.6147 -265.975 79.4814 -264.591 79.4814C-263.206 79.4814 -262.074 80.6147 -262.074 81.9998C-262.074 83.385 -263.206 84.5183 -264.591 84.5183C-265.975 84.5183 -267.108 83.385 -267.108 81.9998ZM-277.177 81.9998C-277.177 80.6147 -276.045 79.4814 -274.66 79.4814C-273.276 79.4814 -272.143 80.6147 -272.143 81.9998C-272.143 83.385 -273.276 84.5183 -274.66 84.5183C-276.045 84.5183 -277.177 83.385 -277.177 81.9998ZM-287.247 81.9998C-287.247 80.6147 -286.114 79.4814 -284.729 79.4814C-283.345 79.4814 -282.212 80.6147 -282.212 81.9998C-282.212 83.385 -283.345 84.5183 -284.729 84.5183C-286.114 84.5183 -287.247 83.385 -287.247 81.9998ZM-297.316 81.9998C-297.316 80.6147 -296.183 79.4814 -294.798 79.4814C-293.414 79.4814 -292.281 80.6147 -292.281 81.9998C-292.281 83.385 -293.414 84.5183 -294.798 84.5183C-296.183 84.5183 -297.316 83.385 -297.316 81.9998ZM-307.385 81.9998C-307.385 80.6147 -306.252 79.4814 -304.868 79.4814C-303.483 79.4814 -302.35 80.6147 -302.35 81.9998C-302.35 83.385 -303.483 84.5183 -304.868 84.5183C-306.252 84.5183 -307.385 83.385 -307.385 81.9998ZM-317.454 81.9998C-317.454 80.6147 -316.321 79.4814 -314.937 79.4814C-313.552 79.4814 -312.419 80.6147 -312.419 81.9998C-312.419 83.385 -313.552 84.5183 -314.937 84.5183C-316.321 84.5183 -317.454 83.385 -317.454 81.9998ZM-327.523 81.9998C-327.523 80.6147 -326.39 79.4814 -325.006 79.4814C-323.621 79.4814 -322.489 80.6147 -322.489 81.9998C-322.489 83.385 -323.621 84.5183 -325.006 84.5183C-326.39 84.5183 -327.523 83.385 -327.523 81.9998ZM-337.592 81.9998C-337.592 80.6147 -336.459 79.4814 -335.075 79.4814C-333.69 79.4814 -332.558 80.6147 -332.558 81.9998C-332.558 83.385 -333.69 84.5183 -335.075 84.5183C-336.459 84.5183 -337.592 83.385 -337.592 81.9998ZM-347.661 81.9998C-347.661 80.6147 -346.529 79.4814 -345.144 79.4814C-343.76 79.4814 -342.627 80.6147 -342.627 81.9998C-342.627 83.385 -343.76 84.5183 -345.144 84.5183C-346.529 84.5183 -347.661 83.385 -347.661 81.9998ZM-357.73 81.9998C-357.73 80.6147 -356.598 79.4814 -355.213 79.4814C-353.829 79.4814 -352.696 80.6147 -352.696 81.9998C-352.696 83.385 -353.829 84.5183 -355.213 84.5183C-356.598 84.5183 -357.73 83.385 -357.73 81.9998ZM-367.8 81.9998C-367.8 80.6147 -366.667 79.4814 -365.282 79.4814C-363.898 79.4814 -362.765 80.6147 -362.765 81.9998C-362.765 83.385 -363.898 84.5183 -365.282 84.5183C-366.667 84.5183 -367.8 83.385 -367.8 81.9998ZM-377.869 81.9998C-377.869 80.6147 -376.736 79.4814 -375.351 79.4814C-373.967 79.4814 -372.834 80.6147 -372.834 81.9998C-372.834 83.385 -373.967 84.5183 -375.351 84.5183C-376.736 84.5183 -377.869 83.385 -377.869 81.9998ZM-387.938 81.9998C-387.938 80.6147 -386.805 79.4814 -385.421 79.4814C-384.036 79.4814 -382.903 80.6147 -382.903 81.9998C-382.903 83.385 -384.036 84.5183 -385.421 84.5183C-386.83 84.5183 -387.938 83.385 -387.938 81.9998ZM-398.007 81.9998C-398.007 80.6147 -396.874 79.4814 -395.49 79.4814C-394.105 79.4814 -392.972 80.6147 -392.972 81.9998C-392.972 83.385 -394.105 84.5183 -395.49 84.5183C-396.899 84.5183 -398.007 83.385 -398.007 81.9998ZM-408.076 81.9998C-408.076 80.6147 -406.943 79.4814 -405.559 79.4814C-404.174 79.4814 -403.042 80.6147 -403.042 81.9998C-403.042 83.385 -404.174 84.5183 -405.559 84.5183C-406.969 84.5183 -408.076 83.385 -408.076 81.9998ZM-418.145 81.9998C-418.145 80.6147 -417.012 79.4814 -415.628 79.4814C-414.243 79.4814 -413.111 80.6147 -413.111 81.9998C-413.111 83.385 -414.243 84.5183 -415.628 84.5183C-417.038 84.5183 -418.145 83.385 -418.145 81.9998ZM-428.214 81.9998C-428.214 80.6147 -427.082 79.4814 -425.697 79.4814C-424.313 79.4814 -423.18 80.6147 -423.18 81.9998C-423.18 83.385 -424.313 84.5183 -425.697 84.5183C-427.107 84.5183 -428.214 83.385 -428.214 81.9998ZM-438.284 81.9998C-438.284 80.6147 -437.151 79.4814 -435.766 79.4814C-434.382 79.4814 -433.249 80.6147 -433.249 81.9998C-433.249 83.385 -434.382 84.5183 -435.766 84.5183C-437.176 84.5183 -438.284 83.385 -438.284 81.9998ZM-448.378 81.9998C-448.378 80.6147 -447.245 79.4814 -445.861 79.4814C-444.476 79.4814 -443.343 80.6147 -443.343 81.9998C-443.343 83.385 -444.476 84.5183 -445.861 84.5183C-447.245 84.5183 -448.378 83.385 -448.378 81.9998ZM-458.447 81.9998C-458.447 80.6147 -457.314 79.4814 -455.93 79.4814C-454.545 79.4814 -453.412 80.6147 -453.412 81.9998C-453.412 83.385 -454.545 84.5183 -455.93 84.5183C-457.314 84.5183 -458.447 83.385 -458.447 81.9998ZM-468.516 81.9998C-468.516 80.6147 -467.383 79.4814 -465.999 79.4814C-464.614 79.4814 -463.482 80.6147 -463.482 81.9998C-463.482 83.385 -464.614 84.5183 -465.999 84.5183C-467.383 84.5183 -468.516 83.385 -468.516 81.9998ZM-478.585 81.9998C-478.585 80.6147 -477.452 79.4814 -476.068 79.4814C-474.683 79.4814 -473.551 80.6147 -473.551 81.9998C-473.551 83.385 -474.683 84.5183 -476.068 84.5183C-477.452 84.5183 -478.585 83.385 -478.585 81.9998ZM-488.654 81.9998C-488.654 80.6147 -487.522 79.4814 -486.137 79.4814C-484.753 79.4814 -483.62 80.6147 -483.62 81.9998C-483.62 83.385 -484.753 84.5183 -486.137 84.5183C-487.522 84.5183 -488.654 83.385 -488.654 81.9998ZM-498.724 81.9998C-498.724 80.6147 -497.591 79.4814 -496.206 79.4814C-494.822 79.4814 -493.689 80.6147 -493.689 81.9998C-493.689 83.385 -494.822 84.5183 -496.206 84.5183C-497.591 84.5183 -498.724 83.385 -498.724 81.9998ZM-508.793 81.9998C-508.793 80.6147 -507.66 79.4814 -506.275 79.4814C-504.891 79.4814 -503.758 80.6147 -503.758 81.9998C-503.758 83.385 -504.891 84.5183 -506.275 84.5183C-507.66 84.5183 -508.793 83.385 -508.793 81.9998ZM-518.862 81.9998C-518.862 80.6147 -517.729 79.4814 -516.344 79.4814C-514.96 79.4814 -513.827 80.6147 -513.827 81.9998C-513.827 83.385 -514.96 84.5183 -516.344 84.5183C-517.729 84.5183 -518.862 83.385 -518.862 81.9998ZM-528.931 81.9998C-528.931 80.6147 -527.798 79.4814 -526.414 79.4814C-525.029 79.4814 -523.896 80.6147 -523.896 81.9998C-523.896 83.385 -525.029 84.5183 -526.414 84.5183C-527.798 84.5183 -528.931 83.385 -528.931 81.9998Z" fill="white"/>
</g>
<defs>
<clipPath id="clip0">
<rect width="2385" height="311" fill="white" transform="translate(-539)"/>
</clipPath>
</defs>
</svg>
