<svg width="150" height="131" viewBox="0 0 150 131" fill="none" xmlns="http://www.w3.org/2000/svg">
<g clip-path="url(#clip0)">
<path d="M35.3076 69.1602H38.1291L42.5521 79.5304C43.0097 80.5979 43.4672 82.1229 43.4672 82.1229H43.5435C43.5435 82.1229 44.0773 80.5979 44.4586 79.5304L48.8815 69.1602H51.7031L53.2283 88.3755H50.5592L49.7204 76.2515C49.6441 75.1078 49.7204 73.4302 49.7204 73.4302H49.6441C49.6441 73.4302 49.1103 75.184 48.5765 76.2515L44.7636 84.868H42.3996L38.5867 76.2515C38.1291 75.184 37.5191 73.354 37.5191 73.354H37.4428C37.4428 73.354 37.4428 75.0315 37.3665 76.2515L36.4514 88.3755H33.7824L35.3076 69.1602Z" fill="#DF6FA3"/>
<path d="M67.4886 82.8092H60.244L58.3376 88.2994H55.5923L62.5318 69.084H65.3533L72.2928 88.2994H69.395L67.4886 82.8092ZM63.8282 71.7528C63.8282 71.7528 63.3706 73.5066 63.0656 74.4978L60.9304 80.598H66.726L64.5908 74.4978C64.2857 73.5066 63.9044 71.7528 63.8282 71.7528Z" fill="#DF6FA3"/>
<path d="M75.9532 69.1602H78.7748L83.1978 79.5304C83.6553 80.5979 84.1129 82.1229 84.1129 82.1229H84.1891C84.1891 82.1229 84.7229 80.5979 85.1042 79.5304L89.5272 69.1602H92.3488L93.8739 88.3755H91.2049L90.2898 76.2515C90.2135 75.1078 90.2898 73.4302 90.2898 73.4302H90.2135C90.2135 73.4302 89.6035 75.184 89.1459 76.2515L85.333 84.868H82.969L79.1561 76.2515C78.6985 75.184 78.0885 73.354 78.0885 73.354H78.0122C78.0122 73.354 78.0122 75.0315 77.9359 76.2515L77.0208 88.3755H74.3518L75.9532 69.1602Z" fill="#DF6FA3"/>
<path d="M108.058 82.8092H100.813L98.907 88.2994H96.1617L103.101 69.084H105.923L112.862 88.2994H110.041L108.058 82.8092ZM104.474 71.7528C104.474 71.7528 104.016 73.5066 103.711 74.4978L101.576 80.598H107.372L105.236 74.4978C104.931 73.5066 104.55 71.7528 104.474 71.7528Z" fill="#DF6FA3"/>
<path d="M71.6828 38.0494V64.0511H76.2583V38.0494H71.6828ZM68.0986 46.6658C68.0986 43.7682 67.3361 41.557 65.8871 39.9557C64.4382 38.3544 62.3793 37.5919 59.7102 37.5919C58.2613 37.5919 56.8124 37.8969 55.4398 38.5831C54.0671 39.2694 53.0758 40.1082 52.6182 41.0232C51.1693 38.7356 48.5765 37.5156 44.9161 37.5156C42.2471 37.5156 40.1118 38.6594 38.2816 41.0232L36.7565 38.0494H33.7824V64.0511H38.3579V44.8358C38.8155 43.997 39.5018 43.1582 40.5694 42.472C41.637 41.7857 42.5521 41.4044 43.4672 41.4044C45.0686 41.4044 46.2888 41.7857 47.2801 42.472C48.2715 43.1582 48.729 44.2258 48.729 45.522V64.0511H53.3045V44.8358C53.6858 43.997 54.2959 43.1582 55.2872 42.472C56.2786 41.7857 57.27 41.4044 58.4138 41.4044C61.9217 41.4044 63.6757 43.4632 63.6757 47.5808V64.0511H68.2511V46.6658H68.0986ZM83.6553 44.1495C83.6553 43.387 84.0366 42.7007 84.7992 42.167C85.5618 41.6332 86.4769 41.4044 87.5445 41.4044C89.3747 41.4044 91.2049 42.167 92.9588 43.6157L94.2552 39.3457C91.4337 38.1256 89.0697 37.5156 87.1632 37.5156C84.6467 37.5156 82.664 38.1256 81.1388 39.3457C79.6136 40.5657 78.8511 42.2432 78.8511 44.3783C78.8511 45.217 79.0036 45.9795 79.2323 46.6658C79.4611 47.3521 79.9187 48.0383 80.4525 48.7246C80.9863 49.3346 81.5963 49.9446 82.3589 50.4021C83.1215 50.9359 84.4942 51.6221 86.6294 52.6134C89.3747 53.8334 90.7473 55.2822 90.7473 57.036C90.7473 59.3998 89.3747 60.6198 86.5531 60.6198C85.028 60.6198 82.969 59.781 80.3762 58.1035L78.7748 62.4498C81.1388 63.8224 83.7316 64.5086 86.4006 64.5086C89.2984 64.5086 91.5099 63.8224 93.1113 62.5261C94.7128 61.2298 95.5516 59.3998 95.5516 57.036C95.5516 55.2822 95.0941 53.7572 94.179 52.6134C93.2639 51.4696 91.815 50.4021 89.8322 49.4871L86.5531 47.9621C84.6467 47.1233 83.6553 45.827 83.6553 44.1495ZM109.964 43.6157L111.261 39.3457C108.439 38.1256 106.075 37.5156 104.169 37.5156C101.652 37.5156 99.6696 38.1256 98.1444 39.3457C96.6192 40.5657 95.8566 42.2432 95.8566 44.3783C95.8566 45.217 96.0092 45.9795 96.2379 46.6658C96.4667 47.3521 96.9243 48.0383 97.4581 48.7246C97.9919 49.3346 98.6019 49.9446 99.3645 50.4021C100.127 50.9359 101.5 51.6221 103.635 52.6134C106.38 53.8334 107.677 55.2822 107.677 57.036C107.677 59.3998 106.304 60.6198 103.482 60.6198C101.957 60.6198 99.8983 59.781 97.3056 58.1035L95.7041 62.4498C98.0681 63.8224 100.661 64.5086 103.33 64.5086C106.228 64.5086 108.439 63.8224 110.041 62.5261C111.642 61.2298 112.481 59.3998 112.481 57.036C112.481 55.2822 112.023 53.7572 111.108 52.6134C110.193 51.4696 108.744 50.4021 106.762 49.4871L103.482 47.9621C101.576 47.1233 100.661 45.827 100.661 44.1495C100.661 43.387 101.042 42.7007 101.805 42.167C102.567 41.6332 103.482 41.4044 104.55 41.4044C106.304 41.4044 108.134 42.167 109.964 43.6157Z" fill="#1A171B"/>
<path d="M70.7677 31.3394H76.487C76.487 31.3394 77.0971 33.0169 75.9532 34.3894C74.9619 35.5332 73.5892 35.4569 73.5892 35.4569C73.5892 35.4569 71.759 35.4569 70.9202 33.7794C70.0814 32.2544 70.7677 31.3394 70.7677 31.3394Z" fill="#1A171B"/>
<path d="M118.124 43.6161L117.972 43.5398C117.743 43.4636 117.438 43.3873 117.133 43.3111C116.828 43.2348 116.523 43.1586 116.294 43.0823L116.141 43.0061L119.802 33.3221C119.039 33.3221 117.819 33.3221 116.599 33.3221C113.396 33.3984 112.405 33.3984 112.176 33.1696C112.1 33.0934 112.1 33.0934 112.1 33.0171C112.1 32.8646 112.1 32.6359 112.176 32.4834C112.176 32.0259 112.176 31.4158 112.786 31.3396C113.549 31.3396 114.387 31.3396 115.302 31.3396C116.828 31.3396 118.429 31.4158 119.725 31.1871C120.336 31.1108 120.869 31.1108 121.327 31.1108C121.632 31.1108 121.937 31.1108 122.318 31.1108C122.394 31.1108 122.547 31.1108 122.623 31.1871C122.852 31.3396 122.852 31.5684 122.7 31.9496C121.632 34.3897 120.946 36.2197 120.259 38.126C119.725 39.651 119.115 41.2523 118.277 43.3111L118.124 43.6161ZM116.523 42.9298C116.751 43.0061 116.98 43.0061 117.209 43.0823C117.438 43.1586 117.743 43.1586 117.972 43.2348C118.81 41.2523 119.344 39.7273 119.878 38.2022C120.564 36.2959 121.251 34.4659 122.318 32.0259C122.394 31.7971 122.394 31.7209 122.394 31.6446C122.394 31.6446 122.318 31.6446 122.242 31.6446C121.861 31.6446 121.556 31.6446 121.251 31.6446C120.717 31.6446 120.336 31.5683 119.725 31.6446C118.429 31.7971 116.828 31.7971 115.302 31.7971C114.387 31.7971 113.549 31.7971 112.786 31.7971C112.557 31.7971 112.557 32.0259 112.481 32.5596C112.481 32.7121 112.481 32.8646 112.481 33.0171C112.938 33.1696 114.997 33.0934 116.599 33.0934C117.895 33.0934 119.268 33.0171 120.03 33.0934H120.259L116.523 42.9298Z" fill="#1A171B"/>
<path d="M117.133 44.3785L115.531 43.7685C115.455 43.7685 115.303 43.6922 115.226 43.616C115.074 43.3872 115.15 43.1585 115.226 43.006C116.294 39.5747 117.438 36.0671 118.887 32.7883C117.056 32.8645 115.226 32.8645 113.472 32.8645C113.32 32.8645 113.091 32.8645 112.862 32.712C112.633 32.5595 112.633 32.2545 112.557 32.102C112.481 31.4158 112.633 30.882 113.091 30.8057C113.244 30.7295 113.396 30.8057 113.549 30.8057C113.701 30.8057 113.777 30.8057 113.854 30.8057H120.946C121.022 30.7295 121.098 30.7295 121.251 30.7295C121.403 30.7295 121.556 30.8057 121.632 30.9582C121.784 31.187 121.708 31.4158 121.708 31.5683C121.556 32.4833 121.174 33.3983 120.869 34.3133L117.133 44.3785ZM119.42 32.407L119.344 32.6358C117.819 35.9908 116.675 39.5747 115.608 43.0822C115.608 43.1585 115.531 43.311 115.608 43.3872C115.608 43.3872 115.684 43.4635 115.76 43.4635L117.056 43.9972L120.641 34.2371C120.946 33.3983 121.251 32.4833 121.479 31.5683C121.479 31.4158 121.556 31.2633 121.479 31.187C121.479 31.1108 121.403 31.1107 121.327 31.1107C121.327 31.1107 121.327 31.1107 121.251 31.1107L121.174 31.187H114.006C113.854 31.2633 113.701 31.187 113.549 31.187C113.472 31.187 113.32 31.187 113.244 31.187C112.862 31.2633 112.938 31.9495 112.938 32.102C112.938 32.2545 113.015 32.407 113.091 32.4833C113.167 32.5595 113.32 32.5595 113.472 32.5595C115.379 32.5595 117.285 32.4833 119.192 32.407H119.42Z" fill="#1A171B"/>
<path d="M78.3172 20.2065C69.395 11.4376 56.6599 7.54875 44.3061 9.83629C31.5709 12.2001 21.5048 21.0453 16.0905 32.6355C10.6762 44.2257 9.45603 58.1035 13.4977 70.2274C17.4632 82.1989 26.3854 91.2728 36.2227 98.7455C48.2715 107.972 61.7692 115.521 71.3015 127.569C72.2166 128.712 73.818 127.111 72.9029 125.967C58.3376 107.438 33.6299 99.6605 20.666 79.7589C7.24454 59.171 12.7351 25.8491 36.1464 14.7926C49.7204 8.38752 66.0397 11.4376 76.6396 21.8078C77.7834 22.8753 79.3848 21.274 78.3172 20.2065Z" fill="#DF6FA3"/>
<path d="M79.5374 22.1129C87.8495 12.124 100.585 6.55761 113.625 7.93014C126.665 9.30266 137.112 17.8428 142.679 29.433C148.246 40.947 149.39 54.8248 145.424 67.025C140.849 81.0553 129.487 91.0442 117.743 99.1269C103.025 109.268 86.6294 116.207 71.6065 125.815C70.3864 126.577 71.5302 128.56 72.7504 127.797C88.0783 117.961 104.855 110.87 119.802 100.423C131.698 92.1117 142.984 81.8178 147.636 67.635C155.414 43.6158 143.899 11.209 116.904 6.17636C102.339 3.4313 87.3157 9.15016 77.9359 20.5116C76.9446 21.6554 78.6223 23.2567 79.5374 22.1129Z" fill="#DF6FA3"/>
<path d="M74.5806 20.5116C67.4123 9.9889 55.8211 2.89752 42.9334 2.21126C29.9695 1.52499 18.1495 8.08262 10.2949 18.3003C1.83021 29.433 -1.60142 43.692 0.686332 57.4936C3.20285 72.2101 11.6675 85.3253 21.7336 96.0768C34.0112 109.268 51.2456 116.588 62.7606 130.542C63.6757 131.686 65.2771 130.085 64.362 128.941C55.516 118.19 43.2384 111.556 32.4098 102.939C21.7336 94.3993 12.5064 83.114 7.01577 70.5326C1.22014 57.2648 0.533815 42.3958 6.48196 29.128C11.7438 17.5378 21.7336 7.47261 34.545 5.03256C49.3391 2.21126 64.2857 9.45514 72.6741 21.6554C73.4367 22.8754 75.4194 21.7316 74.5806 20.5116Z" fill="#DF6FA3"/>
<path d="M74.4281 21.8843C84.9517 11.2091 99.2883 -1.8299 115.608 3.50771C129.944 8.15904 137.112 24.6294 138.866 38.5071C142.45 67.2539 127.046 96.9157 100.051 108.201C86.5531 113.844 72.2928 116.817 62.8368 129.018C61.9217 130.161 63.5231 131.763 64.4382 130.619C74.4281 117.732 89.9847 115.369 104.016 108.963C117.59 102.635 128.114 91.5019 134.52 78.0054C140.773 64.8139 143.137 49.8686 140.696 35.4571C138.409 22.1131 131.24 7.47278 118.124 2.05893C100.508 -5.26121 84.3416 8.5403 72.7504 20.283C71.759 21.3505 73.3604 22.9518 74.4281 21.8843Z" fill="#DF6FA3"/>
</g>
<defs>
<clipPath id="clip0">
<rect width="150" height="131" fill="white"/>
</clipPath>
</defs>
</svg>
