<svg xmlns="http://www.w3.org/2000/svg" xmlns:xlink="http://www.w3.org/1999/xlink" viewBox="0 0 371.22 368.35"><defs><style>.cls-1{fill:none;}.cls-2{isolation:isolate;}.cls-3{clip-path:url(#clip-path);}.cls-4{fill:#fff;}.cls-5{clip-path:url(#clip-path-3);}.cls-6{fill:url(#linear-gradient);}.cls-7{fill:#4f5881;}.cls-8{clip-path:url(#clip-path-5);}.cls-9{fill:url(#linear-gradient-2);}.cls-10{mix-blend-mode:darken;}.cls-11{clip-path:url(#clip-path-7);}.cls-12{clip-path:url(#clip-path-8);}.cls-13{fill:url(#linear-gradient-3);}.cls-14{mix-blend-mode:multiply;}.cls-15{clip-path:url(#clip-path-10);}.cls-16{fill:url(#linear-gradient-4);}.cls-17{fill:#6acff6;}.cls-18{clip-path:url(#clip-path-11);}.cls-19{fill:url(#linear-gradient-5);}.cls-20{clip-path:url(#clip-path-13);}.cls-21{fill:url(#linear-gradient-6);}</style><clipPath id="clip-path"><rect class="cls-1" x="38.55" y="131.47" width="294.12" height="105.42"/></clipPath><clipPath id="clip-path-3"><path class="cls-1" d="M89.61,138.21c-24.42,0-44.3,19-44.31,45.49,0,13.39,5.15,24.6,14.21,33.7a42.16,42.16,0,0,0,30,12.74H281.63c24.39,0,44.27-19.51,44.31-45.94,0-12.75-4.51-22.32-12.74-31.47-8.39-9.33-19.57-14.51-31.49-14.52Z"/></clipPath><linearGradient id="linear-gradient" x1="-301.63" y1="215.63" x2="-298.51" y2="215.63" gradientTransform="matrix(0, 29.51, 29.51, 0, -6177.63, 9039.17)" gradientUnits="userSpaceOnUse"><stop offset="0" stop-color="#404d79"/><stop offset="0.03" stop-color="#49557f"/><stop offset="0.14" stop-color="#697195"/><stop offset="0.25" stop-color="#8489a6"/><stop offset="0.38" stop-color="#989bb4"/><stop offset="0.53" stop-color="#a6a7be"/><stop offset="0.71" stop-color="#aeafc3"/><stop offset="1" stop-color="#b1b1c5"/></linearGradient><clipPath id="clip-path-5"><path class="cls-1" d="M89.67,142.69h-.06c-21.31,0-38.68,17.67-38.71,41,0,11.91,4.57,21.67,12.6,29.71a36.65,36.65,0,0,0,26,11.12H281.63c21.31,0,38.66-17,38.69-40.39S303,142.73,281.71,142.69Z"/></clipPath><linearGradient id="linear-gradient-2" x1="-301.64" y1="184.05" x2="-298.52" y2="184.05" gradientTransform="matrix(0, -26.28, -26.28, 0, 5022.33, -7702.27)" gradientUnits="userSpaceOnUse"><stop offset="0" stop-color="#737598"/><stop offset="0.14" stop-color="#5b6288"/><stop offset="0.24" stop-color="#515a82"/><stop offset="0.75" stop-color="#515a82"/><stop offset="0.79" stop-color="#575f86"/><stop offset="0.84" stop-color="#676e92"/><stop offset="0.91" stop-color="#8387a5"/><stop offset="0.97" stop-color="#a9a9bf"/><stop offset="1" stop-color="#bbbacc"/></linearGradient><clipPath id="clip-path-7"><rect class="cls-1" x="45.3" y="138.21" width="280.64" height="91.93"/></clipPath><clipPath id="clip-path-8"><path class="cls-1" d="M89.52,230.14a42.12,42.12,0,0,1-30-12.74c-9.07-9.1-14.25-20.31-14.22-33.7,0-26.45,19.89-45.49,44.31-45.49h192.1c11.92,0,23.1,5.19,31.49,14.52,8.23,9.15,12.75,18.72,12.74,31.47,0,26.43-19.92,45.94-44.31,45.94Zm192.11-2.24c23.15,0,42-18.49,42.05-43.7.05-12.19-4.27-21.24-12.16-30S293,140.45,281.71,140.45H89.61c-23.17,0-42,18.05-42.07,43.25,0,12.81,4.91,23.46,13.56,32.11A40,40,0,0,0,89.52,227.9Z"/></clipPath><linearGradient id="linear-gradient-3" x1="-305.76" y1="205.67" x2="-302.65" y2="205.67" gradientTransform="matrix(-68.45, 0, 0, 68.45, -20638.75, -13894.79)" gradientUnits="userSpaceOnUse"><stop offset="0" stop-color="#404d79"/><stop offset="0.01" stop-color="#45527d"/><stop offset="0.09" stop-color="#707a9b"/><stop offset="0.18" stop-color="#979eb6"/><stop offset="0.27" stop-color="#b7bccd"/><stop offset="0.37" stop-color="#d1d5df"/><stop offset="0.48" stop-color="#e6e7ed"/><stop offset="0.6" stop-color="#f4f5f7"/><stop offset="0.75" stop-color="#fcfdfd"/><stop offset="1" stop-color="#fff"/></linearGradient><clipPath id="clip-path-10"><path class="cls-1" d="M89.51,230.14a42.12,42.12,0,0,1-30-12.74c-9.07-9.1-14.25-20.31-14.22-33.7,0-26.45,19.89-45.49,44.31-45.49h192.1c11.92,0,23.1,5.19,31.49,14.52,8.23,9.15,12.75,18.72,12.74,31.47,0,26.43-19.92,45.94-44.31,45.94Z"/></clipPath><linearGradient id="linear-gradient-4" x1="-301.63" y1="215.63" x2="-298.51" y2="215.63" gradientTransform="matrix(0, 29.51, 29.51, 0, -6177.63, 9039.17)" gradientUnits="userSpaceOnUse"><stop offset="0" stop-color="#52caf5"/><stop offset="0.05" stop-color="#64cff6"/><stop offset="0.16" stop-color="#84d8f8"/><stop offset="0.27" stop-color="#9edff9"/><stop offset="0.4" stop-color="#b3e5fb"/><stop offset="0.54" stop-color="#c1e9fb"/><stop offset="0.71" stop-color="#c9ebfc"/><stop offset="1" stop-color="#ccecfc"/></linearGradient><clipPath id="clip-path-11"><path class="cls-1" d="M281.63,224.56H89.52a36.61,36.61,0,0,1-26-11.12c-8-8-12.63-17.8-12.6-29.71,0-23.36,17.4-41,38.71-41h192.1c21.33,0,38.67,18.09,38.61,41.48s-17.38,40.39-38.69,40.39"/></clipPath><linearGradient id="linear-gradient-5" x1="-301.64" y1="184.05" x2="-298.52" y2="184.05" gradientTransform="matrix(0, -26.28, -26.28, 0, 5022.33, -7702.27)" gradientUnits="userSpaceOnUse"><stop offset="0" stop-color="#94d9f8"/><stop offset="0.07" stop-color="#8dd7f8"/><stop offset="0.17" stop-color="#78d2f7"/><stop offset="0.21" stop-color="#6dcff6"/><stop offset="0.75" stop-color="#6dcff6"/><stop offset="0.79" stop-color="#73d1f6"/><stop offset="0.85" stop-color="#83d6f7"/><stop offset="0.91" stop-color="#9fdef9"/><stop offset="0.98" stop-color="#c5eafb"/><stop offset="1" stop-color="#d4effc"/></linearGradient><clipPath id="clip-path-13"><path class="cls-1" d="M89.51,230.14a42.12,42.12,0,0,1-30-12.74c-9.07-9.1-14.25-20.31-14.22-33.7,0-26.45,19.89-45.49,44.31-45.49h192.1c11.92,0,23.1,5.19,31.49,14.52,8.23,9.15,12.75,18.72,12.74,31.47,0,26.43-19.92,45.94-44.31,45.94Zm192.12-2.24c23.15,0,42-18.49,42.05-43.7.05-12.19-4.27-21.24-12.16-30S293,140.45,281.71,140.45H89.61c-23.17,0-42,18.05-42.07,43.25,0,12.81,4.91,23.46,13.56,32.11A40,40,0,0,0,89.52,227.9Z"/></clipPath><linearGradient id="linear-gradient-6" x1="-305.76" y1="205.67" x2="-302.65" y2="205.67" gradientTransform="matrix(-68.45, 0, 0, 68.45, -20638.71, -13894.86)" gradientUnits="userSpaceOnUse"><stop offset="0" stop-color="#52caf5"/><stop offset="0.06" stop-color="#71d4f7"/><stop offset="0.15" stop-color="#97dff9"/><stop offset="0.25" stop-color="#b7e9fb"/><stop offset="0.35" stop-color="#d1f1fc"/><stop offset="0.46" stop-color="#e6f7fe"/><stop offset="0.59" stop-color="#f4fcfe"/><stop offset="0.74" stop-color="#fcfeff"/><stop offset="1" stop-color="#fff"/></linearGradient></defs><title>oral-b-logo</title><g class="cls-2"><g id="Layer_2" data-name="Layer 2"><g id="Layer_1-2" data-name="Layer 1"><g class="cls-3"><g class="cls-3"><path class="cls-4" d="M318.21,148.23c-9.69-10.76-22.65-16.73-36.5-16.76H89.61a49.6,49.6,0,0,0-36.17,15.58c-9.56,10-14.85,22.19-14.89,36.65,0,15.16,5.88,28.12,16.2,38.44a48.78,48.78,0,0,0,34.76,14.74l192.12,0c28.1,0,51-22.54,51-52.7,0-14.06-4.85-25.28-14.46-36"/></g><g class="cls-5"><rect class="cls-6" x="45.27" y="138.21" width="280.68" height="91.93"/></g><g class="cls-3"><path class="cls-7" d="M89.52,227.9A40,40,0,0,1,61.1,215.81c-8.65-8.65-13.58-19.3-13.56-32.11.05-25.2,18.9-43.26,42.07-43.26h192.1c11.29,0,21.86,4.95,29.81,13.8s12.21,17.77,12.16,30c0,25.21-18.9,43.7-42.05,43.7Z"/></g><g class="cls-8"><rect class="cls-9" x="50.87" y="142.69" width="269.51" height="81.87"/></g><g class="cls-3"><g class="cls-10"><g class="cls-11"><g class="cls-12"><rect class="cls-13" x="60.19" y="47.12" width="250.85" height="274.11" transform="translate(-74.78 207.98) rotate(-50)"/></g></g></g><g class="cls-14"><g class="cls-11"><g class="cls-15"><rect class="cls-16" x="45.27" y="138.21" width="280.68" height="91.93"/></g><path class="cls-17" d="M89.52,227.9A40,40,0,0,1,61.1,215.81c-8.65-8.65-13.58-19.3-13.56-32.11,0-25.2,18.9-43.26,42.07-43.26h192.1c11.29,0,21.86,4.95,29.81,13.8s12.21,17.77,12.16,30c0,25.21-18.9,43.7-42.05,43.7Z"/><g class="cls-18"><rect class="cls-19" x="50.87" y="142.69" width="269.51" height="81.87"/></g></g></g><g class="cls-10"><g class="cls-11"><g class="cls-20"><rect class="cls-21" x="60.19" y="47.12" width="250.85" height="274.11" transform="translate(-74.78 207.98) rotate(-50)"/></g></g></g><path class="cls-4" d="M127.2,179.37c-.16,13-8.2,34.29-32.71,34.13-18.3,0-25.89-11.55-26-24.29-.07-18.54,12.27-34.41,32.71-34.35,17.89.09,26.17,11.23,26,24.51M86.3,190.15c0,5.75,3,9.54,8.92,9.54,10.71,0,13.88-15,13.93-21.24,0-5-3-9.45-9-9.47-7.4,0-13.81,7.52-13.83,21.17"/><path class="cls-4" d="M176.19,185.11l-21.81,0c-3.24,0-7.42,1.57-9.15,9.8l-3.8,17.51-15.93,0,8.7-40.2,13.81,0,0,4.13c2-2.13,6.22-7.2,14.66-4.64l-1.77,8.08c5.11-7.15,12.59-8.62,21.18-8.64,11,0,21.78,4.34,19.59,14.52l-4.59,21.23a7.42,7.42,0,0,0,.6,5.61l-17.28,0v-2.6c-10,7.21-25.75,3.9-25.71-8.51,0-10.24,10.2-12.46,12.54-12.88,11-2,18.56-1.77,19.25-4.84.91-3.8-9.51-4.17-10.27,1.49M170.61,200c0,4.89,10.49,5.14,13.14-6-6.32,1.9-13.14,2.26-13.14,6"/><polygon class="cls-4" points="229.48 156.67 217.32 212.54 201.02 212.5 213.16 156.64 229.48 156.67"/><path class="cls-4" d="M288.34,184c6.63-3.59,9-8.13,9-14.28-.06-14.12-16.27-12.92-23.35-12.93l-21.92,0-4.63,21.38-13.41,0L231.63,189l13.43,0L240,212.54l32.22.06c18.3,0,22.15-12.57,22.17-17.41,0-6.52-2.69-8.59-6-11.2m-15.72,14.34-12.5,0,2-9.24,12.18,0c5.52,0,4.82,9.23-1.69,9.22m2.78-20.17-10.92,0,1.8-8.3,10.65,0c6.71,0,5.38,8.31-1.53,8.3"/></g></g></g></g></g></svg>